<?xml version="1.0" encoding="utf-8"?>
<!-- Generator: Adobe Illustrator 21.0.2, SVG Export Plug-In . SVG Version: 6.00 Build 0)  -->
<svg version="1.1" id="Layer_1" xmlns="http://www.w3.org/2000/svg" xmlns:xlink="http://www.w3.org/1999/xlink" x="0px" y="0px"
	 viewBox="0 0 1920 1080" style="enable-background:new 0 0 1920 1080;" xml:space="preserve">
<style type="text/css">
	.st0{fill:#999999;}
</style>
<g>
	<path class="st0" d="M1092.4,448.1c-35,12.8-53.1,51.5-40.3,86.6c12.8,35,51.5,53.1,86.6,40.3c35-12.8,53.1-51.5,40.3-86.6
		C1166.2,453.4,1127.4,435.3,1092.4,448.1z M1155.6,522.7c1.7,4.8-0.7,10.1-5.5,11.8l-46.1,16.8c-4.8,1.7-10.1-0.7-11.8-5.5
		l-0.1-0.2c-1.7-4.8,0.7-10.1,5.5-11.8l46.1-16.8c4.8-1.7,10.1,0.7,11.8,5.5L1155.6,522.7z M1147.3,500.1c1.7,4.8-0.7,10.1-5.5,11.8
		l-46.1,16.8c-4.8,1.7-10.1-0.7-11.8-5.5l-0.1-0.2c-1.7-4.8,0.7-10.1,5.5-11.8l46.1-16.8c4.8-1.7,10.1,0.7,11.8,5.5L1147.3,500.1z
		 M1139,477.4c1.7,4.8-0.7,10.1-5.5,11.8l-46.1,16.8c-4.8,1.7-10.1-0.7-11.8-5.5l-0.1-0.2c-1.7-4.8,0.7-10.1,5.5-11.8l46.1-16.8
		c4.8-1.7,10.1,0.7,11.8,5.5L1139,477.4z"/>
</g>
</svg>
