<svg id="Layer_1" data-name="Layer 1" xmlns="http://www.w3.org/2000/svg" viewBox="0 0 1280 500"><defs><style>.cls-3,.cls-6,.cls-8{fill:none}.cls-2{fill:#1f87f0}.cls-3,.cls-6,.cls-8{stroke:#fff;stroke-miterlimit:10}.cls-3,.cls-6{stroke-width:.5px}.cls-3,.cls-4,.cls-5,.cls-8{opacity:.1}.cls-4,.cls-7,.cls-9{fill:#fff}.cls-6,.cls-7{fill-rule:evenodd}</style><pattern id="New_Pattern_3" data-name="New Pattern 3" width="363.43" height="363.43" patternTransform="translate(31.14 17.35)" patternUnits="userSpaceOnUse"><path fill="none" d="M0 0h363.43v363.43H0z"/><path class="cls-2" d="M272.57 181.72h181.72v181.72H272.57z"/><path class="cls-3" d="M391.89 349.47L379.29 337a17.29 17.29 0 0 0-.13-17.59l-1.88 2.59a14.53 14.53 0 1 1-4.86-5.7l1.69-2.36a17.45 17.45 0 1 0-1.24 29.43L385.36 356a4.62 4.62 0 1 0 6.53-6.54z"/><path class="cls-4" d="M364.25 330.27l-4.07-6.09a2.18 2.18 0 1 0-3.62 2.42l5.81 8.72a2.17 2.17 0 0 0 1.78 1 2.19 2.19 0 0 0 1.78-.91L380.49 315a2.18 2.18 0 1 0-3.49-2.5z"/><path class="cls-3" d="M361.58 274.56l-7.18-2.87v-2.17h11.49a4.11 4.11 0 0 0 .2-8.21l-10.81-2.4a8.21 8.21 0 1 0-14-5.81 8.1 8.1 0 0 0 1.53 4.74l-.43.83c-1.75 3.33-4.38 8.39-4.38 14.13a9.42 9.42 0 0 0 9.85 9.85h1.93l1.4 7a6.05 6.05 0 0 0 5.78 4.64 5.62 5.62 0 0 0 .7-.05c2.29-.28 5-2.19 5-6.64v-11.52a1.64 1.64 0 0 0-1.08-1.52z"/><circle class="cls-4" cx="349.48" cy="253.1" r="4.92"/><path class="cls-3" d="M359.33 287.57c0 2-.78 3.22-2.09 3.39a2.71 2.71 0 0 1-2.87-2.07l-1.64-8.2a1.64 1.64 0 0 0-1.61-1.32h-3.28a6.16 6.16 0 0 1-6.57-6.57c0-4.93 2.32-9.37 4-12.61v-.05a8.22 8.22 0 0 0 4.17 1.17 8.33 8.33 0 0 0 1.12-.11 1.11 1.11 0 0 0 .16.07l14.78 3.28a1.45 1.45 0 0 0 .35 0 .82.82 0 1 1 0 1.64h-19.7a1.65 1.65 0 0 0 0 3.29h4.93v3.28a1.64 1.64 0 0 0 1 1.52l7.18 2.87z"/><g class="cls-5"><path class="cls-6" d="M368.93 204.7a2 2 0 0 0-1-.32 13.77 13.77 0 0 0-7.8 2 3.49 3.49 0 0 1-.94-5.78 6.64 6.64 0 0 0 1-7.1c-1-1.86-3.08-2.78-5.78-2.56a1 1 0 0 0-1 1.21 1.1 1.1 0 0 0 1.21 1c1.19-.09 2.86.07 3.64 1.43a4.52 4.52 0 0 1-.95 4.6c-1.24 1.81-1.76 3.48-1.47 4.93a6.46 6.46 0 0 0 2.46 3.68 14.41 14.41 0 0 0-3.72 6.9 1.91 1.91 0 0 0 .07 1.06 31.58 31.58 0 0 0 6.68 10.25 76.21 76.21 0 0 0 9.38 7.51 1.43 1.43 0 0 0 .94.32 11.47 11.47 0 0 0 10.65-8.33 1.52 1.52 0 0 0 0-1 82 82 0 0 0-5.12-10.84 29.38 29.38 0 0 0-8.22-8.91z"/><path class="cls-7" d="M368 215.71a1.48 1.48 0 0 1-.33 2.08 1.4 1.4 0 0 1-2-.24l-3.84-4.92a1.42 1.42 0 0 1 .22-2 1.53 1.53 0 0 1 2.13.22z"/></g><path class="cls-4" d="M296.57 343.87l-2.57 1.06a1.37 1.37 0 1 1-1-2.54l2.54-1.06a1.37 1.37 0 0 1 1.05 2.54z"/><path class="cls-8" d="M321.83 300.64l12.64 30.5a5.5 5.5 0 0 1-3 7.19l-28 11.59a5.51 5.51 0 0 1-7.19-3l1.27-.52a4.13 4.13 0 1 0-3.16-7.63l-1.27.53-6.32-15.25 1.27-.53a4.12 4.12 0 1 0-3.16-7.62l-1.27.53a5.51 5.51 0 0 1 3-7.19l28-11.59a5.5 5.5 0 0 1 7.19 2.99z"/><path class="cls-4" d="M284.55 322.06l2.54-1.06a1.38 1.38 0 0 0-1.06-2.54l-2.54 1.06a1.38 1.38 0 0 0 1.06 2.54zM330.45 335.79l-22.88 9.48-14.75-35.58 22.87-9.48a2.76 2.76 0 0 1 3.6 1.48l12.64 30.5a2.76 2.76 0 0 1-1.48 3.6zm-31.71-22.6l17.79-7.37a1.38 1.38 0 0 0 .74-1.8 1.36 1.36 0 0 0-1.79-.74l-17.79 7.37a1.37 1.37 0 1 0 1.05 2.54zm2.11 5.09l17.79-7.38a1.38 1.38 0 0 0-1.06-2.54l-17.79 7.37a1.38 1.38 0 0 0 1.06 2.55zm2.1 5.08l17.79-7.36a1.37 1.37 0 1 0-1.05-2.54l-17.79 7.38a1.37 1.37 0 0 0 1.05 2.54zm2.11 5.08l17.79-7.37a1.38 1.38 0 0 0-1.05-2.55L304 325.9a1.37 1.37 0 1 0 1.05 2.54zm15.13 4.15a1.38 1.38 0 0 0-1.8-.74l-10.17 4.22a1.38 1.38 0 0 0 1.06 2.54l10.16-4.22a1.38 1.38 0 0 0 .75-1.8zm5.51-8.24a1.36 1.36 0 0 0-1.79-.74L306.12 331a1.37 1.37 0 1 0 1.05 2.54l17.83-7.39a1.38 1.38 0 0 0 .7-1.8z"/><path class="cls-8" d="M321 267.87v3.51c0 .24-4.49 2-4.49 2l-.82 1.95s2 4.25 1.85 4.42l-2.54 2.46a37.63 37.63 0 0 1-4.59-1.72l-2 .81s-1.64 4.4-1.89 4.4h-3.62c-.25 0-2-4.39-2-4.39l-2-.81s-4.34 2-4.51 1.81l-2.54-2.49c-.17-.16 1.75-4.49 1.75-4.49l-.83-2s-4.49-1.6-4.49-1.84V268a37.86 37.86 0 0 1 4.48-2l.83-2s-2-4.24-1.85-4.41l2.54-2.49c.17-.17 4.6 1.71 4.6 1.71l2-.8s1.64-4.41 1.89-4.41h3.58c.25 0 2 4.39 2 4.39l2 .81s4.33-2 4.51-1.8l2.54 2.48c.17.16-1.75 4.5-1.75 4.5l.83 2s4.52 1.64 4.52 1.89zm-16.35-3.3a5.13 5.13 0 1 0 5.25 5.13 5.2 5.2 0 0 0-5.29-5.13z"/><g class="cls-5"><path class="cls-9" d="M342.87 219a1.74 1.74 0 1 1-1.16 3.28l-10.2-3.61a14 14 0 1 1 1.16-3.28zm-14.36-11.07a10.44 10.44 0 1 0-4.93 13.92 10.45 10.45 0 0 0 4.93-13.97z"/><path class="cls-9" d="M315.34 204.52a8.72 8.72 0 0 0-4.11 11.6 1.74 1.74 0 1 0 3.14-1.5 5.23 5.23 0 0 1 2.47-7 1.74 1.74 0 0 0-1.5-3.14zM289.46 215a1.74 1.74 0 1 0-1.5-3.14l-4.71 2.24a1.74 1.74 0 0 0-.82 2.33l5.24 11a1.74 1.74 0 0 0 2.32.82l3.14-1.5 3.75 7.86-3.14 1.5a1.74 1.74 0 0 0 1.5 3.14l4.71-2.25a1.73 1.73 0 0 0 .82-2.32l-5.24-11a1.74 1.74 0 0 0-2.32-.82l-3.14 1.5-3.75-7.85zM305 219.12a1.73 1.73 0 0 0-2.23-.84h-.09l-3.14 1.5-3.8-7.78 4.71-2.25a1.74 1.74 0 1 0-1.49-3.14l-6.29 3a1.74 1.74 0 0 0-.82 2.32l5.25 11 5.24 11a1.74 1.74 0 0 0 2.32.82l6.29-3a1.74 1.74 0 1 0-1.5-3.14l-4.71 2.25-3.74-7.92 3.14-1.5.07-.05a1.73 1.73 0 0 0 .79-2.27z"/></g><path class="cls-2" d="M90.86 272.57h181.72v181.72H90.86z"/><path class="cls-3" d="M237.07 376.66a16.82 16.82 0 0 1-8.48-4.09c.08-2.7 3.19-4.45 7.07-5.17v-2.86c-4.21.71-8 2.52-9.34 5.55a16.86 16.86 0 0 1-3.33-8.74h15.5a14.4 14.4 0 0 1 2.86-2.87v-2.87c5.26-.28 10.49-2.16 12.17-5.86a17 17 0 0 1 3.14 7.32h2.87a19.81 19.81 0 1 0-22.43 22.43z"/><path class="cls-3" d="M223 358.52a16.86 16.86 0 0 1 3.33-8.74 8.55 8.55 0 0 0 4.2 4 20.82 20.82 0 0 0 8 1.85v2.89zM238.49 352.82c-5.08-.3-9.8-2.18-9.9-5.51a16.88 16.88 0 0 1 9.9-4.28zM241.32 352.82V343a16.82 16.82 0 0 1 9.89 4.28c-.1 3.36-4.82 5.24-9.89 5.54zM258.74 376.78a11.36 11.36 0 1 0-2 2L263 385a1.42 1.42 0 0 0 2 0 1.42 1.42 0 0 0 0-2z"/><path class="cls-3" d="M249.81 378.34a8.5 8.5 0 1 1 8.49-8.5 8.5 8.5 0 0 1-8.49 8.5z"/><path class="cls-4" d="M244.15 371.26a1.42 1.42 0 0 1-1.42-1.42 7.08 7.08 0 0 1 7.08-7.07 1.42 1.42 0 0 1 0 2.83 4.25 4.25 0 0 0-4.25 4.24 1.41 1.41 0 0 1-1.41 1.42z"/><path class="cls-3" d="M179.86 365.42l-7.17-2.87v-2.18h11.49a4.1 4.1 0 0 0 .2-8.2l-10.82-2.4a8.23 8.23 0 1 0-12.48-1.07l-.42.83c-1.75 3.34-4.39 8.39-4.39 14.13a9.42 9.42 0 0 0 9.85 9.85h1.94l1.39 7a6.06 6.06 0 0 0 5.78 4.63 5.58 5.58 0 0 0 .7 0c2.29-.28 5-2.2 5-6.64v-11.56a1.64 1.64 0 0 0-1.07-1.52z"/><circle class="cls-4" cx="167.76" cy="343.96" r="4.92"/><path class="cls-3" d="M177.61 378.43c0 2-.78 3.22-2.09 3.38a2.69 2.69 0 0 1-2.86-2.06l-1.66-8.21a1.64 1.64 0 0 0-1.61-1.32h-3.28a6.15 6.15 0 0 1-6.57-6.56c0-4.93 2.32-9.37 4-12.61v-.06a8.07 8.07 0 0 0 4.16 1.18 8.17 8.17 0 0 0 1.12-.12l.17.08 14.77 3.28a1.47 1.47 0 0 0 .36 0 .82.82 0 1 1 0 1.64h-19.7a1.64 1.64 0 1 0 0 3.28h4.92v3.29a1.64 1.64 0 0 0 1 1.52l7.17 2.87z"/><path class="cls-3" d="M207.16 363.66a1.63 1.63 0 0 1-1.64 1.64h-1.64V385h-3.29v-19.7H189.1V385h-3.28v-19.7h-1.64a1.64 1.64 0 0 1 0-3.28h6.57a1.65 1.65 0 1 1 0-3.29h10l1.48-13.31a1.64 1.64 0 0 1 3.26.36l-1.64 14.78a2.41 2.41 0 0 1-.08.25 1.12 1.12 0 0 1-.08.26 2 2 0 0 1-.2.3c0 .06-.09.13-.15.19a1.46 1.46 0 0 1-.33.22 1.08 1.08 0 0 1-.18.11 1.59 1.59 0 0 1-.61.13h3.28a1.63 1.63 0 0 1 1.66 1.64z"/><g class="cls-5"><path class="cls-6" d="M187.21 295.56a1.86 1.86 0 0 0-1-.32 13.82 13.82 0 0 0-7.8 2 4.81 4.81 0 0 1-2-2.61 4.76 4.76 0 0 1 1.1-3.17 6.65 6.65 0 0 0 1-7.1c-1-1.86-3.08-2.78-5.78-2.56a1 1 0 0 0-1 1.21 1.11 1.11 0 0 0 1.22 1c1.19-.09 2.86.07 3.63 1.42a4.49 4.49 0 0 1-.95 4.6v.05c-1.24 1.81-1.76 3.48-1.47 4.93a6.5 6.5 0 0 0 2.46 3.68 14.49 14.49 0 0 0-3.71 6.89 2 2 0 0 0 .06 1.07 31.85 31.85 0 0 0 6.66 10.14 77.75 77.75 0 0 0 9.38 7.51 1.44 1.44 0 0 0 .95.31 11 11 0 0 0 6.66-2.4 11.14 11.14 0 0 0 4-5.92 1.52 1.52 0 0 0 0-1 82 82 0 0 0-5.11-10.84 29.53 29.53 0 0 0-8.23-8.91z"/><path class="cls-7" d="M186.29 306.57a1.48 1.48 0 0 1-.33 2.08 1.38 1.38 0 0 1-2-.25l-3.84-4.91a1.44 1.44 0 0 1 .21-2.06 1.53 1.53 0 0 1 2.13.23z"/></g><path class="cls-8" d="M139.24 358.72v3.52a37.86 37.86 0 0 1-4.48 2l-.83 2s2 4.25 1.85 4.42l-2.54 2.48c-.17.17-4.59-1.71-4.59-1.71l-2 .81s-1.63 4.4-1.88 4.4h-3.59c-.24 0-2-4.39-2-4.39l-2-.81s-4.34 2-4.51 1.81l-2.54-2.49c-.17-.17 1.75-4.49 1.75-4.49l-.82-2s-4.5-1.6-4.5-1.85v-3.51a38 38 0 0 1 4.49-2l.82-2s-2-4.24-1.84-4.42l2.54-2.48c.17-.17 4.59 1.71 4.59 1.71l2-.81s1.63-4.4 1.88-4.4h3.59c.24 0 2 4.39 2 4.39l2 .81s4.34-2 4.51-1.81l2.54 2.49c.18.16-1.74 4.49-1.74 4.49l.82 2s4.48 1.6 4.48 1.84zm-16.34-3.29a5.13 5.13 0 1 0 5.24 5.12 5.19 5.19 0 0 0-5.24-5.12z"/><path class="cls-4" d="M261.19 308.18L251 326.86a5.32 5.32 0 0 1-7.22 2.12l-28-15.31a5.32 5.32 0 0 1-2.12-7.22l10.21-18.68a5.32 5.32 0 0 1 7.22-2.12l28 15.31a5.32 5.32 0 0 1 2.1 7.22zM248.31 326a2.66 2.66 0 0 0 .34-.4l10.21-18.68a2.66 2.66 0 0 0 .23-.76l-14.51 3.07zm-18.53-38a3.06 3.06 0 0 0-.49-.15l7.71 20.26 21.22-4.49a2.37 2.37 0 0 0-.39-.32zm2.15 14.33l-5.25-13.87a2.46 2.46 0 0 0-.51.6L216 307.72a2.32 2.32 0 0 0-.16.51zM245 326.65a2.88 2.88 0 0 0 .74.23L242 309.77l-5.59 1.23a1.38 1.38 0 0 1-.92-.13 1.3 1.3 0 0 1-.6-.7l-2-5.32-16.45 6a2.42 2.42 0 0 0 .6.5z"/><g class="cls-5"><path class="cls-9" d="M161.15 309.81a1.74 1.74 0 1 1-1.16 3.28l-10.2-3.61a14 14 0 1 1 1.21-3.28zm-14.36-11.07a10.44 10.44 0 1 0-4.92 13.92 10.45 10.45 0 0 0 4.92-13.92z"/><path class="cls-9" d="M133.62 295.38a8.71 8.71 0 0 0-4.1 11.6 1.74 1.74 0 1 0 3.14-1.5 5.22 5.22 0 0 1 2.46-7 1.74 1.74 0 0 0-1.5-3.14zM107.74 305.81a1.74 1.74 0 0 0-1.5-3.15l-4.71 2.25a1.74 1.74 0 0 0-.82 2.32l5.25 11a1.74 1.74 0 0 0 2.32.82l3.14-1.5 3.75 7.85-3.17 1.5a1.74 1.74 0 0 0 1.5 3.14l4.72-2.24a1.75 1.75 0 0 0 .82-2.32l-5.25-11a1.74 1.74 0 0 0-2.32-.82l-3.14 1.5-3.75-7.85zM123.23 310a1.72 1.72 0 0 0-2.23-.84h-.09l-3.14 1.5-3.77-7.85 4.71-2.25a1.74 1.74 0 0 0-1.5-3.14l-6.28 3a1.73 1.73 0 0 0-.82 2.32l5.24 11 5.25 11a1.75 1.75 0 0 0 2.32.82l6.28-3a1.74 1.74 0 0 0-1.5-3.14l-4.7 2.24-3.75-7.86 3.14-1.5.07-.05a1.72 1.72 0 0 0 .77-2.25z"/></g><path class="cls-2" d="M-90.86 181.72H90.86v181.72H-90.86z"/><path class="cls-3" d="M28.46 349.47L15.85 337a17.32 17.32 0 0 0 2.34-8.69 17.38 17.38 0 0 0-2.46-8.9L13.85 322a14.47 14.47 0 0 1 1.44 6.27A14.55 14.55 0 0 1 .75 342.83a14.54 14.54 0 0 1 0-29.07A14.53 14.53 0 0 1 9 316.33l1.67-2.33a17.44 17.44 0 1 0-9.92 31.74 17.3 17.3 0 0 0 8.69-2.34L21.92 356a4.62 4.62 0 1 0 6.54-6.54z"/><path class="cls-4" d="M14.18 339.42l2 1.95-2.33 2.33-2-2a17.31 17.31 0 0 0 2.33-2.28zM26.63 353.64c-.05-.07-.08-.14-.14-.21l-9.15-9.14.88-.87 8.19 8.11a1.67 1.67 0 0 1 .51 1.21 1.69 1.69 0 0 1-.29.9zM.81 330.27l-4.06-6.09a2.18 2.18 0 0 0-3-.6 2.19 2.19 0 0 0-.61 3l5.82 8.72a2.17 2.17 0 0 0 1.78 1 2.19 2.19 0 0 0 1.78-.91L17.06 315a2.18 2.18 0 1 0-3.55-2.53z"/><path class="cls-3" d="M55.36 285.81a17 17 0 0 1-8.49-4.1c.09-2.7 3.19-4.45 7.07-5.17v-2.86c-4.21.71-8 2.52-9.34 5.55a16.82 16.82 0 0 1-3.32-8.73h15.49a14.14 14.14 0 0 1 2.87-2.86v-2.88c5.26-.28 10.5-2.16 12.17-5.86a17 17 0 0 1 3.14 7.32h2.88a19.81 19.81 0 1 0-22.44 22.43z"/><path class="cls-3" d="M41.28 267.67a16.83 16.83 0 0 1 3.33-8.74 8.6 8.6 0 0 0 4.19 4 20.82 20.82 0 0 0 8 1.85v2.9zM56.77 262c-5.07-.3-9.79-2.17-9.9-5.51a16.94 16.94 0 0 1 9.9-4.28zM59.6 262v-9.79a16.94 16.94 0 0 1 9.9 4.28c-.1 3.3-4.83 5.17-9.9 5.51zM77 285.92a11.21 11.21 0 0 0 2.41-6.92 11.36 11.36 0 1 0-4.41 8.92l6.22 6.22a1.4 1.4 0 0 0 1 .41 1.37 1.37 0 0 0 1-.41 1.4 1.4 0 0 0 0-2z"/><path class="cls-3" d="M68.09 287.48a8.49 8.49 0 1 1 8.49-8.48 8.5 8.5 0 0 1-8.49 8.48z"/><path class="cls-4" d="M62.43 280.4A1.41 1.41 0 0 1 61 279a7.08 7.08 0 0 1 7.07-7.08 1.42 1.42 0 1 1 0 2.83 4.25 4.25 0 0 0-4.22 4.25 1.42 1.42 0 0 1-1.42 1.4z"/><path class="cls-3" d="M-1.85 274.56L-9 271.69v-2.17H2.46a4.11 4.11 0 0 0 .2-8.21l-10.81-2.4a8.22 8.22 0 0 0 2.4-5.81 8.21 8.21 0 0 0-8.2-8.21 8.21 8.21 0 0 0-8.21 8.21 8.1 8.1 0 0 0 1.53 4.74l-.43.83c-1.74 3.34-4.39 8.39-4.39 14.13a9.43 9.43 0 0 0 9.85 9.85h1.94l1.4 7a6 6 0 0 0 5.77 4.64 5.49 5.49 0 0 0 .7-.05c2.29-.28 5-2.19 5-6.64v-11.52a1.64 1.64 0 0 0-1.06-1.52z"/><path class="cls-3" d="M-4.1 287.57c0 2-.78 3.22-2.09 3.39a2.71 2.71 0 0 1-2.87-2.07l-1.64-8.2a1.65 1.65 0 0 0-1.61-1.32h-3.29a6.16 6.16 0 0 1-6.56-6.57c0-4.93 2.32-9.37 4-12.61v-.05a8.19 8.19 0 0 0 4.17 1.17 8 8 0 0 0 1.11-.11 1.22 1.22 0 0 0 .17.07l14.78 3.28a1.34 1.34 0 0 0 .35 0 .82.82 0 0 1 0 1.64h-19.7a1.65 1.65 0 0 0-1.64 1.64 1.65 1.65 0 0 0 1.64 1.65h4.93v3.28a1.64 1.64 0 0 0 1 1.52l7.18 2.87z"/><path class="cls-3" d="M25.45 272.8a1.64 1.64 0 0 1-1.65 1.64h-1.64v19.7h-3.28v-19.7H7.39v19.7H4.1v-19.7H2.46a1.64 1.64 0 1 1 0-3.28H9a1.65 1.65 0 0 1 0-3.29h10l1.48-13.31a1.64 1.64 0 1 1 3.26.36l-1.59 14.78a1.21 1.21 0 0 1-.08.25 1.12 1.12 0 0 1-.08.26 1.43 1.43 0 0 1-.2.3 1 1 0 0 1-.15.19 1.4 1.4 0 0 1-.32.22 1.25 1.25 0 0 1-.18.11 1.64 1.64 0 0 1-.62.13h3.28a1.64 1.64 0 0 1 1.65 1.64z"/><path class="cls-4" d="M15.6 276.08h1.64V294.14H15.6v-16.42H9.03v-1.64h6.57z"/><g class="cls-5"><path class="cls-6" d="M5.49 204.7a1.92 1.92 0 0 0-1-.32 13.76 13.76 0 0 0-7.79 2 4.73 4.73 0 0 1-2-2.61 4.74 4.74 0 0 1 1.09-3.17 6.62 6.62 0 0 0 1-7.1c-1-1.86-3.08-2.78-5.78-2.56a1 1 0 0 0-1 1.21 1.09 1.09 0 0 0 1.21 1c1.19-.09 2.86.07 3.64 1.43a4.5 4.5 0 0 1-1 4.6c-1.25 1.81-1.77 3.48-1.47 4.93a6.39 6.39 0 0 0 2.45 3.68 14.48 14.48 0 0 0-3.71 6.9 1.91 1.91 0 0 0 .07 1.06A31.41 31.41 0 0 0-2.1 226a76.83 76.83 0 0 0 9.37 7.51 1.46 1.46 0 0 0 1 .32 11.08 11.08 0 0 0 6.66-2.41 11.1 11.1 0 0 0 4-5.92 1.66 1.66 0 0 0 0-1 83.3 83.3 0 0 0-5.12-10.84 29.53 29.53 0 0 0-8.23-8.91z"/><path class="cls-7" d="M4.58 215.71a1.48 1.48 0 0 1-.33 2.08 1.4 1.4 0 0 1-2-.24l-3.84-4.92a1.43 1.43 0 0 1 .21-2 1.54 1.54 0 0 1 2.14.22z"/></g><g class="cls-5"><path class="cls-7" d="M42.11 303.24l39.75 7-5.08 28.92-39.75-7zm35.52 36.05l-.15.84zm-.29 1.63a1 1 0 0 0 .63-.1.81.81 0 0 0 .36-.54l5.38-30.61a.73.73 0 0 0-.16-.63 1 1 0 0 0-.54-.37l-41.51-7.29a1.13 1.13 0 0 0-.64.16.87.87 0 0 0-.29.55l-5.38 30.61a1 1 0 0 0 .09.62 1 1 0 0 0 .55.3zM46.82 336.56L66.47 340l-.29 1.63-19.65-3.43zM67 341.79v.26zm-.09.52l.52.09c.16-.11.22-.1.25-.23L68 340c0-.13 0-.21-.15-.3a1.28 1.28 0 0 0-.51-.16l-21.14-3.71a1.28 1.28 0 0 0-.54 0c-.21 0-.28.09-.3.22l-.36 2.14c0 .13 0 .15.21.31l.52.09zM70.8 344.07l-10.7-1.88a1 1 0 0 1-1.22.8l-6.14-1.08a1.08 1.08 0 0 1-.87-1.16l-10.7-1.88a1.6 1.6 0 0 0-1.78 1.3 1.57 1.57 0 0 0 1.24 1.76l29.63 5.21A1.54 1.54 0 0 0 72 345.9a1.56 1.56 0 0 0-1.23-1.83z"/></g><path class="cls-4" d="M79.48 217.32L69.27 236a5.32 5.32 0 0 1-7.22 2.11L34 222.81a5.32 5.32 0 0 1-2.12-7.22l10.21-18.68a5.32 5.32 0 0 1 7.22-2.12l28 15.31a5.32 5.32 0 0 1 2.17 7.22zm-12.89 17.82a2.18 2.18 0 0 0 .34-.41l10.21-18.68a2.59 2.59 0 0 0 .24-.76l-14.52 3.07zm-18.53-38a2.67 2.67 0 0 0-.48-.15l7.68 20.28 21.21-4.48a2.07 2.07 0 0 0-.39-.33zm2.15 14.33L45 197.58a2.46 2.46 0 0 0-.51.6l-10.25 18.68a3.33 3.33 0 0 0-.16.51zm13.11 24.34a2.54 2.54 0 0 0 .74.23l-3.8-17.11-5.57 1.18a1.29 1.29 0 0 1-.91-.13 1.36 1.36 0 0 1-.61-.7l-2-5.32-16.45 6a2.84 2.84 0 0 0 .59.5z"/><path class="cls-2" d="M272.57 0h181.72v181.72H272.57z"/><path class="cls-3" d="M391.89 167.75l-12.6-12.48a17.27 17.27 0 0 0-.13-17.58l-1.88 2.63a14.53 14.53 0 1 1-4.86-5.7l1.69-2.36a17.45 17.45 0 1 0-1.24 29.42l12.49 12.62a4.62 4.62 0 1 0 6.53-6.55z"/><path class="cls-4" d="M364.25 148.56l-4.07-6.09a2.18 2.18 0 1 0-3.62 2.42l5.81 8.72a2.19 2.19 0 0 0 1.78 1 2.17 2.17 0 0 0 1.78-.92l14.53-20.34a2.18 2.18 0 1 0-3.54-2.54z"/><path class="cls-3" d="M361.58 92.84L354.4 90v-2.2h11.49a4.1 4.1 0 0 0 .2-8.2l-10.81-2.41a8.22 8.22 0 1 0-12.48-1.06c-.14.27-.27.53-.43.82-1.74 3.35-4.38 8.4-4.38 14.13a9.42 9.42 0 0 0 9.85 9.85h1.93l1.4 7a6.05 6.05 0 0 0 5.78 4.64 5.58 5.58 0 0 0 .7 0c2.29-.29 5-2.2 5-6.64V94.37a1.65 1.65 0 0 0-1.07-1.53z"/><circle class="cls-4" cx="349.48" cy="71.38" r="4.92"/><path class="cls-3" d="M359.33 105.86c0 2-.78 3.22-2.09 3.38a2.7 2.7 0 0 1-2.87-2.06L352.73 99a1.64 1.64 0 0 0-1.61-1.32h-3.28a6.16 6.16 0 0 1-6.57-6.57c0-4.93 2.32-9.37 4-12.61a8.12 8.12 0 0 0 4.17 1.17 8.33 8.33 0 0 0 1.12-.11 1.11 1.11 0 0 0 .16.07l14.78 3.29a2.21 2.21 0 0 0 .35 0 .82.82 0 1 1 0 1.64h-19.7a1.64 1.64 0 1 0 0 3.28h4.93v3.28a1.64 1.64 0 0 0 1 1.53l7.18 2.87z"/><g class="cls-5"><path class="cls-6" d="M368.93 23a2 2 0 0 0-1-.32 13.93 13.93 0 0 0-7.8 2 4.75 4.75 0 0 1-2-2.6 4.69 4.69 0 0 1 1.1-3.17 6.66 6.66 0 0 0 1-7.11c-1-1.86-3.08-2.77-5.78-2.55a1 1 0 0 0-1 1.21 1.1 1.1 0 0 0 1.21 1c1.19-.09 2.86.08 3.64 1.43a4.52 4.52 0 0 1-.95 4.6c-1.24 1.82-1.76 3.48-1.47 4.93a6.46 6.46 0 0 0 2.46 3.68 14.45 14.45 0 0 0-3.72 6.9 2 2 0 0 0 .07 1.07 31.54 31.54 0 0 0 6.66 10.13 76.23 76.23 0 0 0 9.38 7.52 1.47 1.47 0 0 0 .94.31 11.47 11.47 0 0 0 10.65-8.33 1.5 1.5 0 0 0 0-1 82.78 82.78 0 0 0-5.12-10.85 29.61 29.61 0 0 0-8.27-8.85z"/><path class="cls-7" d="M368 34a1.5 1.5 0 0 1-.33 2.09 1.4 1.4 0 0 1-2-.25l-3.84-4.91a1.44 1.44 0 0 1 .22-2.06 1.53 1.53 0 0 1 2.13.22z"/></g><path class="cls-4" d="M296.57 162.16l-2.57 1.05a1.37 1.37 0 1 1-1-2.54l2.54-1a1.37 1.37 0 0 1 1.05 2.54z"/><path class="cls-8" d="M321.83 118.92l12.64 30.5a5.49 5.49 0 0 1-3 7.19l-28 11.59a5.51 5.51 0 0 1-7.19-3l1.27-.53a4.12 4.12 0 1 0-3.16-7.62l-1.27.52-6.32-15.24 1.27-.53a4.13 4.13 0 0 0-3.07-7.6l-1.27.53a5.51 5.51 0 0 1 3-7.19l28-11.59a5.51 5.51 0 0 1 7.1 2.97z"/><path class="cls-4" d="M284.55 140.34l2.54-1.05a1.38 1.38 0 1 0-1.06-2.54l-2.54 1.05a1.38 1.38 0 0 0 1.06 2.54zM330.45 154.07l-22.88 9.48L292.82 128l22.87-9.49a2.76 2.76 0 0 1 3.6 1.49l12.64 30.49a2.76 2.76 0 0 1-1.48 3.58zm-31.71-22.59l17.79-7.38a1.37 1.37 0 0 0-1-2.54l-17.79 7.38a1.37 1.37 0 1 0 1.05 2.54zm2.11 5.08l17.79-7.38a1.38 1.38 0 0 0-1.06-2.54L299.79 134a1.38 1.38 0 0 0 1.06 2.54zm2.1 5.08l17.79-7.37a1.38 1.38 0 1 0-1.05-2.55l-17.79 7.38a1.37 1.37 0 0 0 1.05 2.54zm2.11 5.09l17.79-7.38a1.37 1.37 0 1 0-1.05-2.54l-17.8 7.37a1.38 1.38 0 0 0 1.05 2.55zm15.13 4.15a1.38 1.38 0 0 0-1.8-.75l-10.17 4.22a1.38 1.38 0 0 0 1.06 2.54l10.16-4.22a1.37 1.37 0 0 0 .75-1.79zm5.51-8.25a1.37 1.37 0 0 0-1.79-.74l-17.79 7.38a1.37 1.37 0 1 0 1.05 2.54l17.83-7.38a1.38 1.38 0 0 0 .7-1.8z"/><path class="cls-8" d="M321 86.15v3.51c0 .24-4.49 2-4.49 2l-.82 2s2 4.24 1.85 4.41l-2.54 2.42a37.63 37.63 0 0 1-4.59-1.72l-2 .81s-1.64 4.4-1.89 4.4h-3.62c-.25 0-2-4.38-2-4.38l-2-.81s-4.34 2-4.51 1.8l-2.54-2.48c-.17-.17 1.75-4.5 1.75-4.5l-.83-2s-4.49-1.6-4.49-1.85V86.3c0-.24 4.48-2 4.48-2l.83-2s-2-4.25-1.85-4.42l2.54-2.48c.17-.17 4.6 1.71 4.6 1.71l2-.81s1.64-4.4 1.89-4.4h3.58c.25 0 2 4.39 2 4.39l2 .81s4.33-2 4.51-1.81l2.54 2.48c.17.17-1.75 4.5-1.75 4.5l.83 2s4.52 1.64 4.52 1.88zm-16.35-3.3a5.13 5.13 0 1 0 5.21 5.15 5.2 5.2 0 0 0-5.25-5.15z"/><g class="cls-5"><path class="cls-9" d="M342.87 37.23a1.75 1.75 0 0 1 1.06 2.22 1.71 1.71 0 0 1-.89 1 1.74 1.74 0 0 1-1.33.07l-10.2-3.61a14 14 0 1 1 1.16-3.28zm-14.36-11.07a10.44 10.44 0 1 0-4.93 13.92 10.45 10.45 0 0 0 4.93-13.92z"/><path class="cls-9" d="M315.34 22.81a8.72 8.72 0 0 0-4.11 11.6 1.74 1.74 0 0 0 3.14-1.5 5.23 5.23 0 0 1 2.47-7 1.74 1.74 0 1 0-1.5-3.14zM289.46 33.23a1.74 1.74 0 0 0-1.5-3.14l-4.71 2.25a1.73 1.73 0 0 0-.82 2.32l5.24 11a1.75 1.75 0 0 0 2.32.83l3.14-1.5 3.75 7.85-3.14 1.5a1.74 1.74 0 1 0 1.5 3.14l4.76-2.26a1.73 1.73 0 0 0 .82-2.32l-5.24-11a1.73 1.73 0 0 0-2.32-.82l-3.14 1.49-3.75-7.85zM305 37.4a1.74 1.74 0 0 0-2.23-.84h-.09l-3.14 1.51-3.75-7.86 4.66-2.21a1.74 1.74 0 0 0-1.45-3.16l-6.29 3a1.74 1.74 0 0 0-.82 2.32l5.25 11 5.24 11a1.74 1.74 0 0 0 2.32.82L311 50a1.74 1.74 0 0 0-1.5-3.15l-4.71 2.25-3.79-7.87 3.14-1.51h.07a1.73 1.73 0 0 0 .79-2.32z"/></g><path class="cls-2" d="M90.86 90.86h181.72v181.72H90.86z"/><path class="cls-3" d="M210.18 258.61l-12.61-12.48a17.29 17.29 0 0 0-.13-17.59l-1.88 2.63a14.39 14.39 0 0 1 1.44 6.27 14.56 14.56 0 1 1-6.3-12l1.69-2.37a17.45 17.45 0 1 0-1.23 29.43l12.48 12.62a4.63 4.63 0 1 0 6.54-6.55z"/><path class="cls-4" d="M195.89 248.56l2 1.95-2.32 2.33-1.95-2a17.31 17.31 0 0 0 2.27-2.28zM208.34 262.78a1.37 1.37 0 0 0-.13-.2l-9.15-9.15.87-.87 8.2 8.11a1.72 1.72 0 0 1 .5 1.22 1.68 1.68 0 0 1-.29.89zM182.53 239.42l-4.06-6.1a2.18 2.18 0 0 0-3.63 2.42l5.81 8.72a2.22 2.22 0 0 0 1.78 1 2.17 2.17 0 0 0 1.77-.92l14.54-20.35a2.18 2.18 0 1 0-3.55-2.53z"/><path class="cls-3" d="M237.07 195a16.92 16.92 0 0 1-8.48-4.1c.08-2.7 3.19-4.44 7.07-5.17v-2.85c-4.21.7-8 2.51-9.34 5.54a16.83 16.83 0 0 1-3.33-8.73h15.5a14.35 14.35 0 0 1 2.86-2.86v-2.87c5.26-.29 10.49-2.17 12.17-5.86a16.9 16.9 0 0 1 3.14 7.31h2.87a19.81 19.81 0 1 0-22.43 22.44z"/><path class="cls-3" d="M223 176.81a16.83 16.83 0 0 1 3.33-8.74 8.58 8.58 0 0 0 4.2 4 20.82 20.82 0 0 0 8 1.85v2.9zM238.49 171.1c-5.08-.29-9.8-2.17-9.9-5.51a16.94 16.94 0 0 1 9.9-4.28zM241.32 171.1v-9.79a16.88 16.88 0 0 1 9.89 4.28c-.1 3.34-4.82 5.22-9.89 5.51zM258.74 195.06a11.36 11.36 0 1 0-2 2l6.22 6.22a1.41 1.41 0 0 0 2-2z"/><path class="cls-3" d="M249.81 196.62a8.49 8.49 0 1 1 8.49-8.49 8.5 8.5 0 0 1-8.49 8.49z"/><path class="cls-4" d="M244.15 189.54a1.42 1.42 0 0 1-1.42-1.41 7.09 7.09 0 0 1 7.08-7.08 1.42 1.42 0 0 1 0 2.83 4.26 4.26 0 0 0-4.25 4.25 1.41 1.41 0 0 1-1.41 1.41z"/><path class="cls-3" d="M179.86 183.7l-7.17-2.87v-2.17h11.49a4.11 4.11 0 0 0 .2-8.21l-10.82-2.4a8.22 8.22 0 1 0-12.48-1.05l-.42.82c-1.75 3.34-4.39 8.4-4.39 14.13a9.42 9.42 0 0 0 9.85 9.85h1.94l1.39 7a6.05 6.05 0 0 0 5.78 4.64 5.62 5.62 0 0 0 .7-.05c2.29-.28 5-2.19 5-6.63v-11.5a1.64 1.64 0 0 0-1.07-1.56z"/><circle class="cls-4" cx="167.76" cy="162.24" r="4.92"/><path class="cls-3" d="M177.61 196.72c0 1.95-.78 3.21-2.09 3.38a2.71 2.71 0 0 1-2.86-2.06l-1.66-8.21a1.63 1.63 0 0 0-1.61-1.32h-3.28a6.16 6.16 0 0 1-6.57-6.57c0-4.93 2.32-9.37 4-12.61v-.05a8.06 8.06 0 0 0 4.16 1.17 8.17 8.17 0 0 0 1.12-.11 1.22 1.22 0 0 0 .17.07l14.77 3.28a1.47 1.47 0 0 0 .36 0 .82.82 0 1 1 0 1.64h-19.7a1.65 1.65 0 0 0 0 3.29h4.92v3.28a1.65 1.65 0 0 0 1 1.53l7.17 2.87z"/><path class="cls-3" d="M207.16 181.94a1.63 1.63 0 0 1-1.64 1.64h-1.64v19.7h-3.29v-19.7H189.1v19.7h-3.28v-19.7h-1.64a1.64 1.64 0 0 1 0-3.28h6.57a1.64 1.64 0 1 1 0-3.28h10l1.48-13.32a1.64 1.64 0 1 1 3.26.36l-1.64 14.78a1.83 1.83 0 0 1-.08.25 1.12 1.12 0 0 1-.08.26 1.31 1.31 0 0 1-.2.3 1.49 1.49 0 0 1-.15.2 1.9 1.9 0 0 1-.33.22c-.06 0-.11.08-.18.11a1.79 1.79 0 0 1-.61.12h3.28a1.63 1.63 0 0 1 1.66 1.64z"/><path class="cls-4" d="M197.31 185.22h1.64v18.06h-1.64v-16.41h-6.56v-1.65h6.56z"/><g class="cls-5"><path class="cls-6" d="M187.21 113.84a2 2 0 0 0-1-.32 13.9 13.9 0 0 0-7.8 2 4.78 4.78 0 0 1-2-2.61 4.73 4.73 0 0 1 1.1-3.16 6.66 6.66 0 0 0 1-7.11c-1-1.86-3.08-2.78-5.78-2.56a1.06 1.06 0 0 0-1 1.22 1.1 1.1 0 0 0 1.22 1c1.19-.09 2.86.07 3.63 1.43a4.5 4.5 0 0 1-.95 4.6c-1.24 1.81-1.76 3.48-1.47 4.93a6.46 6.46 0 0 0 2.44 3.74 14.53 14.53 0 0 0-3.71 6.9 2 2 0 0 0 .11 1.1 31.81 31.81 0 0 0 6.66 10.13 77.77 77.77 0 0 0 9.38 7.52 1.5 1.5 0 0 0 .95.31 11.44 11.44 0 0 0 10.64-8.33 1.5 1.5 0 0 0 0-1 82.19 82.19 0 0 0-5.11-10.85 29.77 29.77 0 0 0-8.23-8.91z"/><path class="cls-7" d="M186.29 124.85a1.47 1.47 0 0 1-.33 2.08 1.39 1.39 0 0 1-2-.24l-3.84-4.91a1.44 1.44 0 0 1 .21-2.06 1.53 1.53 0 0 1 2.13.22z"/></g><path class="cls-4" d="M114.85 253l-2.54 1a1.37 1.37 0 0 1-1-2.54l2.54-1.05a1.37 1.37 0 1 1 1 2.54z"/><path class="cls-8" d="M140.11 209.78l12.65 30.5a5.5 5.5 0 0 1-3 7.19l-27.95 11.59a5.51 5.51 0 0 1-7.19-3l1.27-.53a4.13 4.13 0 0 0-3.16-7.63l-1.27.53-6.33-15.25 1.28-.52a4.13 4.13 0 1 0-3.17-7.63l-1.27.53a5.5 5.5 0 0 1 3-7.19l27.95-11.59a5.5 5.5 0 0 1 7.19 3z"/><path class="cls-4" d="M102.83 231.2l2.54-1a1.38 1.38 0 0 0-1.05-2.55l-2.54 1.06a1.37 1.37 0 1 0 1 2.54zM148.73 244.93l-22.87 9.48-14.76-35.58 22.9-9.48a2.74 2.74 0 0 1 3.59 1.49l12.65 30.49a2.76 2.76 0 0 1-1.51 3.6zM117 222.33l17.81-7.33a1.37 1.37 0 1 0-1.05-2.54L116 219.79a1.37 1.37 0 0 0 1 2.54zm2.11 5.09l17.81-7.42a1.37 1.37 0 0 0-1-2.54l-17.79 7.38a1.37 1.37 0 1 0 1 2.54zm2.11 5.08l17.78-7.38a1.38 1.38 0 0 0-1.06-2.54L120.19 230a1.37 1.37 0 1 0 1 2.54zm2.11 5.08l17.79-7.37a1.38 1.38 0 0 0-1.06-2.54L122.29 235a1.38 1.38 0 1 0 1.06 2.54zm15.12 4.16a1.37 1.37 0 0 0-1.8-.75l-10.16 4.22a1.37 1.37 0 1 0 1 2.54l10.17-4.22a1.37 1.37 0 0 0 .81-1.79zm5.52-8.25a1.38 1.38 0 0 0-1.8-.74l-17.79 7.37a1.38 1.38 0 0 0 1 2.55l17.79-7.38a1.38 1.38 0 0 0 .83-1.8z"/><g class="cls-5"><path class="cls-7" d="M223.83 212.38l39.75 7-5.08 28.92-39.75-7zm35.52 36.05l-.15.85zm-.29 1.63a1 1 0 0 0 .62-.09.85.85 0 0 0 .37-.54l5.37-30.62a.7.7 0 0 0-.15-.63c-.18-.17-.28-.32-.54-.36l-41.52-7.3a1.2 1.2 0 0 0-.63.16 1 1 0 0 0-.3.55l-5.38 30.61a1.1 1.1 0 0 0 .1.63 1 1 0 0 0 .55.29zM228.54 245.71l19.64 3.45-.28 1.63-19.65-3.45zm20.14 5.22l-.05.26zm-.09.52l.52.09c.15-.11.22-.09.24-.22l.38-2.16a.27.27 0 0 0-.15-.29 1.18 1.18 0 0 0-.51-.16L227.92 245a1.21 1.21 0 0 0-.53 0c-.21 0-.29.08-.31.21l-.38 2.16c0 .13.05.14.22.3l.52.09zM252.52 253.22l-10.71-1.88a1 1 0 0 1-1.21.79l-6.14-1.08a1.08 1.08 0 0 1-.87-1.16l-10.7-1.89a1.56 1.56 0 0 0-.54 3.07l29.63 5.2a1.53 1.53 0 0 0 1.76-1.23 1.56 1.56 0 0 0-1.22-1.83z"/></g><path class="cls-8" d="M139.24 177v3.51c0 .24-4.48 2-4.48 2l-.83 2s2 4.24 1.85 4.41l-2.54 2.49a38.26 38.26 0 0 1-4.59-1.72l-2 .81s-1.63 4.4-1.88 4.4h-3.59c-.24 0-2-4.39-2-4.39l-2-.81s-4.34 2-4.51 1.81l-2.55-2.51c-.17-.16 1.75-4.49 1.75-4.49l-.82-1.95s-4.5-1.61-4.5-1.85v-3.52a38 38 0 0 1 4.49-2l.82-2s-2-4.24-1.84-4.41l2.54-2.49a38.26 38.26 0 0 1 4.59 1.72l2-.81s1.63-4.4 1.88-4.4h3.59c.24 0 2 4.39 2 4.39l2 .8s4.34-2 4.51-1.8l2.54 2.48c.18.17-1.74 4.5-1.74 4.5l.82 2s4.49 1.6 4.49 1.83zm-16.34-3.3a5.13 5.13 0 1 0 5.24 5.13 5.19 5.19 0 0 0-5.24-5.12z"/><path class="cls-4" d="M261.19 126.47L251 145.15a5.33 5.33 0 0 1-7.22 2.12l-28-15.32a5.32 5.32 0 0 1-2.12-7.22l10.21-18.68a5.32 5.32 0 0 1 7.22-2.12l28 15.31a5.34 5.34 0 0 1 2.1 7.23zm-12.88 17.81a3.36 3.36 0 0 0 .34-.41l10.21-18.68a2.6 2.6 0 0 0 .23-.75l-14.51 3.07zm-18.53-38a2.3 2.3 0 0 0-.49-.15L237 126.4l21.22-4.49a2.44 2.44 0 0 0-.39-.33zm2.15 14.32l-5.25-13.87a2.33 2.33 0 0 0-.51.61L216 126a2.24 2.24 0 0 0-.16.5zM245 144.93a2.54 2.54 0 0 0 .74.23l-3.8-17.1-5.57 1.17a1.32 1.32 0 0 1-.92-.13 1.3 1.3 0 0 1-.6-.7l-2-5.32-16.45 6a2.66 2.66 0 0 0 .6.5z"/><g class="cls-5"><path class="cls-9" d="M161.15 128.09a1.74 1.74 0 1 1-1.16 3.28l-10.2-3.61a14 14 0 1 1 1.16-3.28zM146.79 117a10.44 10.44 0 1 0-4.92 13.92 10.45 10.45 0 0 0 4.92-13.92z"/><path class="cls-9" d="M133.62 113.66a8.72 8.72 0 0 0-4.1 11.61 1.74 1.74 0 0 0 3.14-1.5 5.22 5.22 0 0 1 2.46-7 1.74 1.74 0 0 0-1.5-3.15zM107.74 124.09a1.74 1.74 0 1 0-1.5-3.14l-4.71 2.25a1.74 1.74 0 0 0-.82 2.32l5.25 11a1.73 1.73 0 0 0 2.32.82l3.14-1.5 3.75 7.86-3.15 1.5a1.74 1.74 0 1 0 1.5 3.14l4.72-2.25a1.75 1.75 0 0 0 .82-2.32l-5.25-11a1.75 1.75 0 0 0-2.32-.82l-3.14 1.5-3.75-7.85zM123.23 128.26a1.73 1.73 0 0 0-2.23-.84h-.09l-3.14 1.5-3.77-7.83 4.71-2.25a1.74 1.74 0 1 0-1.5-3.14l-6.28 3a1.73 1.73 0 0 0-.82 2.32l5.24 11 5.25 11a1.73 1.73 0 0 0 2.32.82l6.28-3a1.74 1.74 0 0 0-1.5-3.14l-4.7 2.24-3.75-7.85 3.14-1.51.07-.05a1.72 1.72 0 0 0 .77-2.27z"/></g><path class="cls-2" d="M-90.86 0H90.86v181.72H-90.86z"/><path class="cls-3" d="M28.46 167.75l-12.61-12.48a17.3 17.3 0 0 0 2.34-8.69 17.32 17.32 0 0 0-2.46-8.89l-1.88 2.63a14.46 14.46 0 0 1 1.44 6.26A14.55 14.55 0 0 1 .75 161.12a14.54 14.54 0 0 1 0-29.07A14.45 14.45 0 0 1 9 134.62l1.68-2.36a17.31 17.31 0 0 0-9.92-3.12A17.45 17.45 0 0 0 .75 164a17.3 17.3 0 0 0 8.69-2.35l12.48 12.65a4.63 4.63 0 1 0 6.54-6.55z"/><path class="cls-4" d="M14.18 157.7l2 2-2.36 2.3-2-2a18 18 0 0 0 2.36-2.3zM26.63 171.92a2.43 2.43 0 0 0-.14-.2l-9.15-9.15.88-.87 8.19 8.11a1.71 1.71 0 0 1 .51 1.22 1.68 1.68 0 0 1-.29.89zM.81 148.56l-4.06-6.09a2.17 2.17 0 0 0-3-.61 2.2 2.2 0 0 0-.61 3l5.82 8.72a2.19 2.19 0 0 0 1.78 1 2.17 2.17 0 0 0 1.78-.92l14.53-20.34a2.18 2.18 0 1 0-3.55-2.54z"/><path class="cls-3" d="M55.36 104.09a17 17 0 0 1-8.49-4.09c.09-2.71 3.19-4.45 7.07-5.18V92c-4.21.71-8 2.51-9.34 5.54a16.82 16.82 0 0 1-3.32-8.73h15.49A14.19 14.19 0 0 1 59.64 86v-2.92c5.26-.29 10.5-2.16 12.17-5.86a16.9 16.9 0 0 1 3.14 7.31h2.88A19.81 19.81 0 1 0 55.35 107z"/><path class="cls-3" d="M41.28 86a16.86 16.86 0 0 1 3.33-8.74 8.55 8.55 0 0 0 4.19 4 20.82 20.82 0 0 0 8 1.85V86zM56.77 80.24c-5.07-.24-9.77-2.17-9.9-5.51a16.94 16.94 0 0 1 9.9-4.28zM59.6 80.24v-9.79a16.94 16.94 0 0 1 9.9 4.28c-.1 3.34-4.83 5.27-9.9 5.51zM77 104.2a11.21 11.21 0 0 0 2.39-6.93A11.36 11.36 0 1 0 75 106.2l6.22 6.22a1.41 1.41 0 0 0 1 .42 1.38 1.38 0 0 0 1-.42 1.4 1.4 0 0 0 0-2z"/><path class="cls-3" d="M68.09 105.76a8.49 8.49 0 1 1 8.49-8.49 8.5 8.5 0 0 1-8.49 8.49z"/><path class="cls-4" d="M62.43 98.69A1.42 1.42 0 0 1 61 97.27a7.08 7.08 0 0 1 7.07-7.07 1.42 1.42 0 1 1 0 2.83 4.24 4.24 0 0 0-4.24 4.24 1.43 1.43 0 0 1-1.4 1.42z"/><path class="cls-3" d="M-1.85 92.84L-9 90v-2.2H2.46a4.1 4.1 0 0 0 .2-8.2l-10.81-2.41a8.2 8.2 0 0 0 2.4-5.81 8.2 8.2 0 0 0-8.2-8.2 8.2 8.2 0 0 0-8.21 8.2 8.11 8.11 0 0 0 1.53 4.75c-.14.27-.27.53-.43.82-1.74 3.35-4.39 8.4-4.39 14.13a9.43 9.43 0 0 0 9.85 9.85h1.94l1.4 7a6 6 0 0 0 5.77 4.64 5.48 5.48 0 0 0 .7 0c2.29-.29 5-2.2 5-6.64V94.37a1.65 1.65 0 0 0-1.06-1.53z"/><path class="cls-3" d="M-4.1 105.86c0 2-.78 3.22-2.09 3.38a2.7 2.7 0 0 1-2.87-2.06L-10.7 99a1.65 1.65 0 0 0-1.61-1.32h-3.29a6.16 6.16 0 0 1-6.56-6.57c0-4.93 2.32-9.37 4-12.61a8.09 8.09 0 0 0 4.17 1.17 8 8 0 0 0 1.11-.11 1.22 1.22 0 0 0 .17.07l14.82 3.21a2 2 0 0 0 .35 0 .82.82 0 0 1 0 1.64h-19.7a1.64 1.64 0 0 0-1.64 1.64 1.64 1.64 0 0 0 1.64 1.64h4.93v3.28a1.64 1.64 0 0 0 1 1.53l7.18 2.87z"/><path class="cls-3" d="M25.45 91.08a1.65 1.65 0 0 1-1.65 1.65h-1.64v19.69h-3.28V92.73H7.39v19.69H4.1V92.73H2.46a1.65 1.65 0 0 1 0-3.29H9a1.64 1.64 0 0 1 0-3.28h10l1.48-13.32a1.64 1.64 0 1 1 3.26.37L22.15 88a1 1 0 0 1-.08.25 1.38 1.38 0 0 1-.08.27 1.15 1.15 0 0 1-.2.29 1.49 1.49 0 0 1-.15.2 1.81 1.81 0 0 1-.32.22c-.07 0-.12.08-.18.11a1.63 1.63 0 0 1-.62.12h3.28a1.65 1.65 0 0 1 1.65 1.62z"/><path class="cls-4" d="M15.6 94.37h1.64v18.05H15.6V96.01H9.03v-1.64h6.57z"/><g class="cls-5"><path class="cls-6" d="M5.49 23a2 2 0 0 0-1-.32 13.92 13.92 0 0 0-7.79 2 4.75 4.75 0 0 1-2-2.6 4.72 4.72 0 0 1 1.09-3.17 6.64 6.64 0 0 0 1-7.11C-4.27 10-6.32 9-9 9.26a1 1 0 0 0-1 1.21 1.09 1.09 0 0 0 1.21 1c1.19-.09 2.86.08 3.64 1.43a4.5 4.5 0 0 1-1 4.6c-1.2 1.87-1.72 3.5-1.42 4.98a6.39 6.39 0 0 0 2.45 3.68 14.53 14.53 0 0 0-3.71 6.9 2 2 0 0 0 .07 1.07A31.37 31.37 0 0 0-2.1 44.26a76.85 76.85 0 0 0 9.37 7.52 1.5 1.5 0 0 0 1 .31 11.08 11.08 0 0 0 6.66-2.41 11.06 11.06 0 0 0 4-5.92 1.62 1.62 0 0 0 0-1 84.09 84.09 0 0 0-5.12-10.85A29.77 29.77 0 0 0 5.49 23z"/><path class="cls-7" d="M4.58 34a1.5 1.5 0 0 1-.33 2.09 1.4 1.4 0 0 1-2-.25l-3.84-4.91a1.44 1.44 0 0 1 .21-2.06 1.54 1.54 0 0 1 2.14.22z"/></g><g class="cls-5"><path class="cls-7" d="M42.11 121.52l39.75 7-5.08 28.91-39.75-7zm35.52 36.05l-.15.85zm-.29 1.63a1 1 0 0 0 .63-.09.83.83 0 0 0 .36-.54L83.71 128a.75.75 0 0 0-.16-.63c-.17-.16-.28-.32-.54-.36l-41.51-7.3a1.22 1.22 0 0 0-.64.16.92.92 0 0 0-.29.55L35.19 151a1 1 0 0 0 .09.62 1.16 1.16 0 0 0 .55.3zM46.82 154.85l19.65 3.45-.29 1.63-19.65-3.45zM67 160.07v.26zm-.09.52l.52.09c.16-.1.22-.09.25-.22l.32-2.16c0-.13 0-.2-.15-.29a1.14 1.14 0 0 0-.51-.16l-21.14-3.72a1.26 1.26 0 0 0-.54 0c-.21 0-.28.08-.3.21l-.36 2.14c0 .13 0 .14.21.3l.52.1zM70.8 162.36l-10.7-1.88a1 1 0 0 1-1.22.79l-6.14-1.07a1.1 1.1 0 0 1-.87-1.17l-10.7-1.88a1.56 1.56 0 0 0-.54 3.07l29.63 5.2a1.55 1.55 0 0 0 .54-3.06z"/></g><path class="cls-4" d="M79.48 35.61L69.27 54.29a5.32 5.32 0 0 1-7.22 2.12L34 41.09a5.32 5.32 0 0 1-2.12-7.22l10.24-18.68a5.32 5.32 0 0 1 7.22-2.12l28 15.32a5.32 5.32 0 0 1 2.14 7.22zM66.59 53.42a1.69 1.69 0 0 0 .34-.41l10.21-18.68a2.62 2.62 0 0 0 .24-.75l-14.52 3.07zm-18.53-38a2.06 2.06 0 0 0-.48-.15l7.68 20.28 21.21-4.49a2.52 2.52 0 0 0-.39-.33zm2.15 14.32L45 15.86a2.71 2.71 0 0 0-.51.61L34.24 35.15a2.91 2.91 0 0 0-.16.5zm13.11 24.33a2.54 2.54 0 0 0 .74.23l-3.8-17.1-5.57 1.18a1.3 1.3 0 0 1-.91-.14 1.34 1.34 0 0 1-.61-.69l-2-5.33-16.45 6a2.84 2.84 0 0 0 .59.5z"/><path class="cls-2" d="M90.86-90.86h181.72V90.86H90.86z"/><path class="cls-3" d="M210.18 76.89l-12.61-12.48a17.27 17.27 0 0 0-.13-17.58l-1.88 2.63a14.32 14.32 0 0 1 1.44 6.26 14.56 14.56 0 1 1-6.3-12l1.69-2.36a17.45 17.45 0 1 0-1.23 29.43l12.48 12.61a4.63 4.63 0 1 0 6.54-6.55z"/><path class="cls-4" d="M195.89 66.85l2 2-2.32 2.32-1.95-2a17.85 17.85 0 0 0 2.27-2.32zM208.34 81.07a1.48 1.48 0 0 0-.13-.21l-9.15-9.15.87-.87 8.2 8.11a1.74 1.74 0 0 1 .5 1.22 1.72 1.72 0 0 1-.29.9zM182.53 57.7l-4.06-6.09a2.18 2.18 0 1 0-3.63 2.39l5.81 8.72a2.21 2.21 0 0 0 1.78 1 2.18 2.18 0 0 0 1.77-.91l14.54-20.35a2.18 2.18 0 0 0-3.55-2.54z"/><path class="cls-3" d="M237.07 13.23a16.91 16.91 0 0 1-8.48-4.09c.08-2.7 3.19-4.45 7.07-5.17V1.11c-4.21.71-8 2.51-9.34 5.54A16.83 16.83 0 0 1 223-2.08h15.5a14.4 14.4 0 0 1 2.86-2.87v-2.83c5.26-.28 10.49-2.16 12.17-5.86a17 17 0 0 1 3.14 7.32h2.87a19.81 19.81 0 0 0-19.6-17 19.81 19.81 0 0 0-19.85 19.83 19.8 19.8 0 0 0 17 19.6z"/><path class="cls-3" d="M258.74 13.34a11.31 11.31 0 1 0-8.93 4.39 11.21 11.21 0 0 0 6.93-2.39l6.26 6.22a1.41 1.41 0 0 0 2-2z"/><path class="cls-3" d="M249.81 14.9a8.49 8.49 0 1 1 8.49-8.49 8.5 8.5 0 0 1-8.49 8.49z"/><path class="cls-4" d="M244.15 7.83a1.43 1.43 0 0 1-1.42-1.42 7.08 7.08 0 0 1 7.08-7.07 1.42 1.42 0 0 1 0 2.83 4.25 4.25 0 0 0-4.25 4.24 1.42 1.42 0 0 1-1.41 1.42z"/><path class="cls-3" d="M179.86 2l-7.17-2.89v-2.17h11.49a4 4 0 0 0 4.1-4.1 4 4 0 0 0-3.9-4.1l-10.82-2.41a8.14 8.14 0 0 0 2.41-5.8 8.2 8.2 0 0 0-8.21-8.21 8.21 8.21 0 0 0-8.21 8.21 8.17 8.17 0 0 0 1.53 4.74l-.42.83c-1.75 3.34-4.39 8.39-4.39 14.13a9.43 9.43 0 0 0 9.85 9.85h1.94l1.39 7a6.06 6.06 0 0 0 5.78 4.63 5.58 5.58 0 0 0 .7 0c2.29-.29 5-2.2 5-6.64V3.51A1.65 1.65 0 0 0 179.86 2z"/><path class="cls-3" d="M177.61 15c0 1.95-.78 3.22-2.09 3.38a2.7 2.7 0 0 1-2.86-2.06L171 8.11a1.64 1.64 0 0 0-1.61-1.32h-3.28a6.16 6.16 0 0 1-6.56-6.56c0-4.93 2.32-9.37 4-12.61v-.06a8.06 8.06 0 0 0 4.16 1.17 8.17 8.17 0 0 0 1.12-.11l.17.08L183.82-8a2.2 2.2 0 0 0 .36 0 .73.73 0 0 1 .82.82.74.74 0 0 1-.82.82h-19.7a1.63 1.63 0 0 0-1.64 1.64 1.63 1.63 0 0 0 1.64 1.64h4.92V.23a1.64 1.64 0 0 0 1 1.52l7.17 2.87z"/><path class="cls-3" d="M207.16.23a1.64 1.64 0 0 1-1.64 1.64h-1.64v19.7h-3.29V1.87H189.1v19.7h-3.28V1.87h-1.64a1.64 1.64 0 0 1-1.64-1.64 1.64 1.64 0 0 1 1.64-1.65h6.57a1.64 1.64 0 0 1-1.65-1.64 1.65 1.65 0 0 1 1.65-1.64h10l1.5-13.3a1.65 1.65 0 0 1 1.81-1.45 1.64 1.64 0 0 1 1.45 1.81l-1.64 14.76a2.58 2.58 0 0 1-.08.26 1.12 1.12 0 0 1-.08.26 2 2 0 0 1-.2.3c0 .06-.09.13-.15.19a1.9 1.9 0 0 1-.33.22c-.06 0-.11.08-.18.11a1.58 1.58 0 0 1-.61.12h3.28a1.64 1.64 0 0 1 1.64 1.65z"/><path class="cls-4" d="M197.31 3.51h1.64V21.57h-1.64V5.15h-6.56V3.51h6.56zM114.85 71.3l-2.54 1a1.36 1.36 0 0 1-1.79-.74 1.37 1.37 0 0 1 .74-1.8l2.54-1a1.37 1.37 0 1 1 1 2.54z"/><path class="cls-8" d="M140.11 28.07l12.65 30.49a5.5 5.5 0 0 1-3 7.19l-27.93 11.59a5.49 5.49 0 0 1-7.19-3l1.27-.53a4.12 4.12 0 1 0-3.16-7.62l-1.27.53-6.33-15.22 1.28-.53a4.13 4.13 0 1 0-3.17-7.62l-1.27.52a5.51 5.51 0 0 1 3-7.19l27.95-11.59a5.5 5.5 0 0 1 7.17 2.98z"/><path class="cls-4" d="M102.83 49.48l2.54-1a1.37 1.37 0 0 0-1.05-2.54l-2.54 1a1.37 1.37 0 1 0 1 2.54zM148.73 63.21l-22.87 9.49-14.76-35.58 22.9-9.49a2.75 2.75 0 0 1 3.59 1.49l12.65 30.5a2.75 2.75 0 0 1-1.51 3.59zM117 40.62l17.79-7.38a1.37 1.37 0 1 0-1.05-2.54L116 38.08a1.37 1.37 0 0 0 1 2.54zm2.11 5.08l17.79-7.37a1.38 1.38 0 0 0-1-2.55l-17.79 7.38a1.37 1.37 0 1 0 1 2.54zm2.11 5.08L139 43.41a1.38 1.38 0 0 0-1-2.54l-17.78 7.37a1.37 1.37 0 1 0 1 2.54zm2.11 5.09l17.79-7.38a1.38 1.38 0 0 0-1.04-2.49l-17.79 7.38a1.38 1.38 0 0 0 1.06 2.54zM138.47 60a1.38 1.38 0 0 0-1.8-.74l-10.16 4.21a1.37 1.37 0 1 0 1 2.54l10.17-4.21a1.38 1.38 0 0 0 .79-1.8zm5.53-8.22a1.38 1.38 0 0 0-1.8-.75l-17.8 7.38a1.37 1.37 0 0 0 1 2.54l17.79-7.38a1.36 1.36 0 0 0 .81-1.79z"/><g class="cls-5"><path class="cls-7" d="M223.83 30.66l39.75 7-5.08 28.9-39.75-7zm35.52 36.05l-.15.85zm-.29 1.63a.88.88 0 0 0 .62-.09.82.82 0 0 0 .37-.54l5.37-30.61a.72.72 0 0 0-.15-.64c-.18-.16-.28-.31-.54-.36l-41.52-7.29a1.19 1.19 0 0 0-.63.15 1 1 0 0 0-.3.56l-5.38 30.61a1.08 1.08 0 0 0 .1.62 1.11 1.11 0 0 0 .55.3zM228.54 64l19.64 3.45-.28 1.63-19.65-3.45zm20.14 5.22l-.05.26zm-.09.52l.52.1c.15-.11.22-.1.24-.23l.38-2.15a.28.28 0 0 0-.15-.3 1.18 1.18 0 0 0-.51-.16l-21.15-3.72a1.38 1.38 0 0 0-.53 0c-.21 0-.29.08-.31.22l-.38 2.15c0 .13.05.14.22.31l.52.09zM252.52 71.5l-10.71-1.88a1 1 0 0 1-1.21.8l-6.14-1.08a1.08 1.08 0 0 1-.87-1.17l-10.7-1.88a1.61 1.61 0 0 0-1.78 1.31 1.58 1.58 0 0 0 1.24 1.76L252 74.57a1.54 1.54 0 0 0 1.76-1.24 1.56 1.56 0 0 0-1.22-1.83z"/></g><path class="cls-8" d="M139.24-4.71v3.52a37.86 37.86 0 0 1-4.48 2l-.83 2s2 4.24 1.85 4.42l-2.54 2.48c-.17.17-4.59-1.72-4.59-1.72l-2 .81s-1.63 4.41-1.88 4.41h-3.59c-.24 0-2-4.39-2-4.39l-2-.81a37.2 37.2 0 0 1-4.51 1.81l-2.54-2.49c-.17-.17 1.75-4.5 1.75-4.5L111.05.8s-4.5-1.6-4.5-1.85v-3.51c0-.24 4.49-2 4.49-2l.82-2s-2-4.25-1.84-4.42l2.54-2.48c.17-.17 4.59 1.71 4.59 1.71l2-.81s1.63-4.4 1.88-4.4h3.59c.24 0 2 4.39 2 4.39l2 .81s4.34-2 4.51-1.81l2.54 2.57c.18.17-1.74 4.5-1.74 4.5l.82 2s4.49 1.55 4.49 1.79zM122.9-8a5.19 5.19 0 0 0-5.24 5.12 5.19 5.19 0 0 0 5.24 5.13 5.19 5.19 0 0 0 5.24-5.13A5.19 5.19 0 0 0 122.9-8z"/></pattern></defs><path fill="url(#New_Pattern_3)" d="M0 0h1280v500H0z"/></svg>