<svg id="Layer_1" data-name="Layer 1" xmlns="http://www.w3.org/2000/svg" viewBox="0 0 181.72 181.72"><defs><style>.cls-2,.cls-7{fill:none;stroke:#fff;stroke-miterlimit:10}.cls-2{stroke-width:.5px}.cls-2,.cls-3,.cls-4,.cls-7{opacity:.1}.cls-3,.cls-6,.cls-8{fill:#fff}.cls-6{fill-rule:evenodd}</style></defs><path fill="#1f87f0" d="M0 0h181.72v181.72H0z"/><path class="cls-2" d="M119.32 167.75l-12.61-12.48a17.27 17.27 0 0 0-.13-17.58l-1.87 2.63a14.56 14.56 0 1 1-4.87-5.7l1.69-2.36a17.45 17.45 0 1 0-1.23 29.42l12.48 12.62a4.63 4.63 0 1 0 6.54-6.55z"/><path class="cls-3" d="M105 157.7l2 2-2.32 2.3-2-2a17.31 17.31 0 0 0 2.32-2.3zM117.48 171.92a1.13 1.13 0 0 0-.13-.2l-9.15-9.15.87-.87 8.2 8.11a1.74 1.74 0 0 1 .5 1.22 1.68 1.68 0 0 1-.29.89zM91.67 148.56l-4.06-6.09a2.18 2.18 0 1 0-3.61 2.42l5.82 8.72a2.17 2.17 0 0 0 1.77 1 2.15 2.15 0 0 0 1.77-.92l14.54-20.34a2.18 2.18 0 1 0-3.55-2.54z"/><path class="cls-2" d="M146.21 104.09a17 17 0 0 1-8.48-4.09c.08-2.71 3.19-4.45 7.07-5.18V92c-4.21.71-8 2.51-9.34 5.54a16.83 16.83 0 0 1-3.33-8.73h15.5A13.94 13.94 0 0 1 150.5 86v-2.92c5.26-.29 10.49-2.16 12.17-5.86a16.9 16.9 0 0 1 3.14 7.31h2.88A19.81 19.81 0 1 0 146.21 107z"/><path class="cls-2" d="M132.13 86a16.87 16.87 0 0 1 3.34-8.74 8.51 8.51 0 0 0 4.19 4 20.82 20.82 0 0 0 8 1.85V86zM147.63 80.24c-5.07-.29-9.8-2.17-9.9-5.51a16.94 16.94 0 0 1 9.9-4.28zM150.46 80.24v-9.79a16.88 16.88 0 0 1 9.89 4.28c-.1 3.34-4.82 5.27-9.89 5.51zM167.88 104.2a11.36 11.36 0 1 0-2 2l6.22 6.22a1.41 1.41 0 0 0 1 .42 1.39 1.39 0 0 0 1-.42 1.42 1.42 0 0 0 0-2z"/><path class="cls-2" d="M159 105.76a8.49 8.49 0 1 1 8.49-8.49 8.5 8.5 0 0 1-8.49 8.49z"/><path class="cls-3" d="M153.29 98.69a1.43 1.43 0 0 1-1.42-1.42A7.08 7.08 0 0 1 159 90.2a1.42 1.42 0 1 1 0 2.8 4.25 4.25 0 0 0-4.25 4.24 1.42 1.42 0 0 1-1.46 1.45z"/><path class="cls-2" d="M89 92.84L81.83 90v-2.2h11.49a4.1 4.1 0 0 0 .2-8.2L82.7 77.19a8.22 8.22 0 1 0-12.47-1.06l-.43.87c-1.75 3.35-4.39 8.4-4.39 14.13a9.42 9.42 0 0 0 9.85 9.85h1.94l1.4 7a6 6 0 0 0 5.77 4.64 5.48 5.48 0 0 0 .7 0c2.29-.29 5-2.2 5-6.64V94.37A1.65 1.65 0 0 0 89 92.84z"/><circle class="cls-3" cx="76.9" cy="71.38" r="4.92"/><path class="cls-2" d="M86.75 105.86c0 2-.78 3.22-2.08 3.38a2.7 2.7 0 0 1-2.87-2.06L80.16 99a1.65 1.65 0 0 0-1.61-1.32h-3.29a6.15 6.15 0 0 1-6.56-6.57c0-4.93 2.32-9.37 4-12.61a8.09 8.09 0 0 0 4.16 1.17 8.17 8.17 0 0 0 1.14-.19 1.22 1.22 0 0 0 .17.07L93 82.84a2.2 2.2 0 0 0 .36 0 .82.82 0 0 1 0 1.64H73.62a1.64 1.64 0 0 0 0 3.28h4.93v3.28a1.63 1.63 0 0 0 1 1.53l7.17 2.87z"/><path class="cls-2" d="M116.3 91.08a1.64 1.64 0 0 1-1.64 1.65H113v19.69h-3.28V92.73H98.25v19.69H95V92.73h-1.68a1.65 1.65 0 0 1 0-3.29h6.57a1.64 1.64 0 0 1 0-3.28h10l1.48-13.32a1.64 1.64 0 1 1 3.26.37L113 88a1 1 0 0 1-.08.25 1.38 1.38 0 0 1-.08.27 1.15 1.15 0 0 1-.2.29 1.49 1.49 0 0 1-.15.2 1.9 1.9 0 0 1-.33.22c-.06 0-.11.08-.18.11a1.54 1.54 0 0 1-.61.12h3.28a1.64 1.64 0 0 1 1.65 1.62z"/><path class="cls-3" d="M106.45 94.37h1.64v18.05h-1.64V96.01h-6.56v-1.64h6.56z"/><g class="cls-4"><path d="M96.35 23a2 2 0 0 0-1-.32 14 14 0 0 0-7.8 2 4.72 4.72 0 0 1-2-2.6 4.67 4.67 0 0 1 1.09-3.17 6.64 6.64 0 0 0 1-7.11c-1.05-1.8-3.1-2.8-5.8-2.54a1 1 0 0 0-1 1.21 1.09 1.09 0 0 0 1.21 1c1.19-.09 2.86.08 3.64 1.43a4.5 4.5 0 0 1-1 4.6c-1.18 1.87-1.69 3.5-1.4 4.98a6.39 6.39 0 0 0 2.45 3.68 14.53 14.53 0 0 0-3.74 6.9 2 2 0 0 0 .07 1.07 31.51 31.51 0 0 0 6.65 10.13 77.77 77.77 0 0 0 9.38 7.52 1.5 1.5 0 0 0 1 .31 11.47 11.47 0 0 0 10.65-8.33 1.62 1.62 0 0 0 0-1 84.09 84.09 0 0 0-5.12-10.85A29.77 29.77 0 0 0 96.35 23z" fill-rule="evenodd" stroke-width=".5" fill="none" stroke="#fff" stroke-miterlimit="10"/><path class="cls-6" d="M95.44 34a1.5 1.5 0 0 1-.34 2.09 1.39 1.39 0 0 1-2-.25l-3.84-4.91a1.44 1.44 0 0 1 .21-2.06 1.54 1.54 0 0 1 2.14.22z"/></g><path class="cls-3" d="M24 162.16l-2.54 1.05a1.38 1.38 0 0 1-1.06-2.54l2.54-1a1.38 1.38 0 0 1 1.06 2.49z"/><path class="cls-7" d="M49.25 118.92l12.65 30.5a5.5 5.5 0 0 1-3 7.19L31 168.2a5.5 5.5 0 0 1-7.19-3l1.27-.53a4.12 4.12 0 1 0-3.16-7.62l-1.27.52-6.35-15.21 1.27-.53a4.13 4.13 0 0 0-3.16-7.63l-1.28.53a5.5 5.5 0 0 1 3-7.19l28-11.59a5.51 5.51 0 0 1 7.12 2.97z"/><path class="cls-3" d="M12 140.34l2.54-1.05a1.37 1.37 0 1 0-1-2.54L11 137.8a1.37 1.37 0 1 0 1 2.54zM59.36 150.47L46.71 120a2.75 2.75 0 0 0-3.59-1.49L20.25 128 35 163.55l22.87-9.48a2.76 2.76 0 0 0 1.49-3.6zm-35-19.74a1.37 1.37 0 0 1 .74-1.79l17.79-7.38A1.38 1.38 0 1 1 44 124.1l-17.79 7.38a1.37 1.37 0 0 1-1.84-.75zm2.11 5.09a1.37 1.37 0 0 1 .74-1.8L45 126.64a1.37 1.37 0 1 1 1.05 2.54l-17.79 7.38a1.37 1.37 0 0 1-1.78-.74zm2.1 5.08a1.38 1.38 0 0 1 .75-1.8l17.79-7.38a1.38 1.38 0 0 1 1.05 2.55l-17.79 7.37a1.38 1.38 0 0 1-1.79-.74zm2.12 5.1a1.38 1.38 0 0 1 .74-1.8l17.79-7.37a1.38 1.38 0 1 1 1.06 2.54l-17.79 7.38a1.38 1.38 0 0 1-1.8-.75zm16.18 6.69l-10.17 4.2a1.37 1.37 0 0 1-1.05-2.54l10.17-4.22a1.37 1.37 0 0 1 1 2.54zm5.52-8.24l-17.79 7.36a1.38 1.38 0 0 1-1.06-2.54l17.79-7.38a1.38 1.38 0 1 1 1.06 2.54z"/><g class="cls-4"><path class="cls-6" d="M127.89 150.44l39.75 7 5.08-28.91-39.75-7zm40.45 8l.15-.85zm-41.65-6.51a1.11 1.11 0 0 1-.55-.3 1.08 1.08 0 0 1-.1-.62l5.38-30.62a1 1 0 0 1 .3-.55 1.22 1.22 0 0 1 .64-.16l41.51 7.3c.26 0 .37.2.54.36a.75.75 0 0 1 .16.63l-5.38 30.62a.85.85 0 0 1-.37.54.93.93 0 0 1-.62.09zM137.39 156.48l19.61 3.45.29-1.63-19.65-3.45zm20.39 3.85v-.26zm-21.2-3.45l-.52-.1c-.17-.16-.24-.17-.22-.3l.38-2.16c0-.13.1-.18.31-.21a1.21 1.21 0 0 1 .53 0l21.15 3.72a1.18 1.18 0 0 1 .51.16c.12.09.17.16.15.29l-.38 2.16c0 .13-.09.12-.24.22l-.52-.09zM161.66 162.36L151 160.48a1 1 0 0 1-1.21.79l-6.14-1.07a1.1 1.1 0 0 1-.87-1.17L132 157.15a1.56 1.56 0 0 0-.54 3.07l29.63 5.2a1.53 1.53 0 0 0 1.76-1.23 1.55 1.55 0 0 0-1.22-1.83z"/></g><path class="cls-7" d="M43.89 84.31l-.82-2S45 78 44.82 77.85l-2.54-2.48c-.18-.17-4.51 1.81-4.51 1.81l-2-.81S34 72 33.76 72h-3.59c-.25 0-1.88 4.4-1.88 4.4l-2 .81s-4.42-1.88-4.59-1.71L19.16 78C19 78.13 21 82.38 21 82.38l-.82 2s-4.49 1.73-4.49 2v3.51c0 .25 4.5 1.85 4.5 1.85l.83 2a36.93 36.93 0 0 0-1.76 4.5l2.55 2.48c.17.17 4.5-1.8 4.5-1.8l2 .81s1.77 4.38 2 4.38h3.59c.25 0 1.88-4.4 1.88-4.4l2-.81a38.1 38.1 0 0 0 4.58 1.72L44.92 98c.18-.17-1.84-4.41-1.84-4.41l.82-2s4.48-1.73 4.48-2v-3.44c.01-.24-4.49-1.84-4.49-1.84zM37.28 88A5.24 5.24 0 1 1 32 82.85 5.19 5.19 0 0 1 37.28 88z"/><path class="cls-3" d="M168.22 28.39l-28-15.32a5.33 5.33 0 0 0-7.22 2.12l-10.24 18.68a5.33 5.33 0 0 0 2.12 7.22l28 15.32a5.33 5.33 0 0 0 7.23-2.12l10.21-18.68a5.33 5.33 0 0 0-2.1-7.22zm-14.5 8.26l14.52-3.07a3 3 0 0 1-.24.75L157.79 53a2.32 2.32 0 0 1-.34.41zm13.22-5.93a2.52 2.52 0 0 1 .39.33l-21.22 4.49-7.68-20.28a2.13 2.13 0 0 1 .49.15zm-42 4.93a2.24 2.24 0 0 1 .16-.5l10.21-18.68a2.71 2.71 0 0 1 .51-.61l5.25 13.87zm1.22 3.11a2.61 2.61 0 0 1-.59-.5l16.44-6 2 5.33a1.34 1.34 0 0 0 .61.69 1.3 1.3 0 0 0 .91.14l5.57-1.18 3.8 17.1a2.54 2.54 0 0 1-.74-.23z"/><g class="cls-4"><path class="cls-8" d="M60.1 33.62a14.08 14.08 0 1 0-1.17 3.28l10.2 3.61a1.74 1.74 0 0 0 1.33-.07 1.68 1.68 0 0 0 .89-1 1.73 1.73 0 0 0-1.06-2.22zM51 40.08a10.44 10.44 0 1 1 4.93-13.92A10.45 10.45 0 0 1 51 40.08z"/><path class="cls-8" d="M42.76 22.81a8.7 8.7 0 0 0-4.1 11.6 1.74 1.74 0 0 0 3.14-1.5 5.22 5.22 0 0 1 2.46-7 1.74 1.74 0 0 0-1.5-3.14zM16.89 33.23a1.74 1.74 0 0 0-1.5-3.14l-4.72 2.25a1.75 1.75 0 0 0-.82 2.32l5.25 11a1.74 1.74 0 0 0 2.32.83L20.56 45l3.75 7.85-3.14 1.5a1.74 1.74 0 1 0 1.5 3.14l4.71-2.25a1.74 1.74 0 0 0 .82-2.32L23 41.91a1.73 1.73 0 0 0-2.32-.82l-3.14 1.49-3.75-7.85zM32.37 37.4a1.74 1.74 0 0 0-2.23-.84h-.09l-3.14 1.51-3.74-7.86L27.88 28a1.74 1.74 0 0 0-1.5-3.15l-6.28 3a1.73 1.73 0 0 0-.82 2.32l5.24 11 5.25 11a1.73 1.73 0 0 0 2.32.82l6.28-3a1.74 1.74 0 0 0-1.5-3.15l-4.71 2.25-3.75-7.85 3.15-1.51h.07a1.73 1.73 0 0 0 .74-2.33z"/></g></svg>