<svg id="Layer_1" data-name="Layer 1" xmlns="http://www.w3.org/2000/svg" viewBox="0 0 181.72 181.72"><defs><style>.cls-1{fill:#1f87f0;}.cls-2{opacity:0.15;}.cls-10,.cls-3{fill:#fff;}.cls-4{fill:#0087bf;}.cls-5,.cls-7,.cls-8,.cls-9{fill:none;stroke:#fff;stroke-miterlimit:10;}.cls-10,.cls-5,.cls-6{opacity:0.1;}.cls-8{stroke-width:0.5px;}.cls-9{stroke-width:0.25px;}.cls-10{font-size:15.35px;font-family:IRANSans-Medium, IRANSans;}</style></defs><title>T1 - Jopp Freelancers&amp;apos; Page - Final</title><rect class="cls-1" width="181.72" height="181.72"/><g class="cls-2"><path class="cls-3" d="M106.73,149.19A17.93,17.93,0,1,1,88.8,131.26,17.93,17.93,0,0,1,106.73,149.19Z"/><path class="cls-4" d="M82.61,166h0Zm2.28.63h-.25l-.06,0h-.09l-.12,0H84l-.09,0h-.41l-.07,0h-.07l0,0-.08,0-.06,0h0l-.07,0h-.41l0,0h0c.53.19,1.07.36,1.63.51l.19.05.21,0h.23Zm21.76-19.11a1.13,1.13,0,0,0,0-.15v0l0,0,0-.12,0-.14h0l0,0v0h0v.17h0l0-.06v.14l0-.06,0,.06v.09h0v.15h0l0-.08h0v.2l0,0h0l0-.13v.15l0,0v.23l0,.06v.33h0l0,.06v.47a1.32,1.32,0,0,1,0,.26v.16l0,.1v0l0,.15v0h0v.09l0,.18,0,0h-.05v.1l0,.1h0l0,.08v.35l0,.34h0c0,.1,0,.13,0,.31l0,.2,0,.15v.36l0,.13,0,0h0v0l0,.1v.13h0l0,.05,0,0h0l0,.05,0,0,0,.07v.05l0,.15-.07.14h0l0-.06a1,1,0,0,1,0-.19v-.23c0-.11,0-.21,0-.32a1.64,1.64,0,0,0-.09-.44l0-.18c0-.08,0-.16,0-.23v-.06a4.47,4.47,0,0,0-.14-.61v0l0,0,0-.13,0-.11v-.09c0-.17-.06-.34-.1-.51v0l0-.2v0l0-.08,0-.09v-.22l-.07-.17,0,0v-.08l0-.15v-.06l0,0h0v.14h0l0,0,0,0V149h0l0,.08,0,.07,0,.06h0l0-.06,0,0,0-.05-.07-.08,0,0,0-.06,0,0,0,0,0-.05,0-.05h0l0-.06.06-.12v-.09l-.06.1,0,0h0l-.13-.14,0-.05,0,0h0l-.09,0h0l-.06,0,0,0-.05-.15,0-.08h-.08l0-.07,0,0h-.08l-.17.14-.06,0h-.08l0,0,0,.05,0,0,0,0h-.06l-.1.09,0,0,0,.05h-.16l0,0-.18,0-.06,0-.06,0,0,0-.06,0,0,0h-.14l0-.07,0-.07-.07-.16,0-.06,0,0-.07,0h0v.1l0,.08,0,0,0,0,0-.07s0,0,0-.06h0v0l0,.05,0,.07,0,.06h-.24l0,0,0,0h-.15l0,0a.36.36,0,0,0-.15-.11H101l-.07-.09,0-.1-.08-.08-.07-.07,0-.1,0-.06h0l-.05-.06,0,0,0-.05-.07-.08,0,0v0l0,.09h-.12l0,0v.09l0,0h0l0,0v.08l0,0,.13.26v0l0,0,.08.1,0,0,0,0,.1.08h0l0,0,.09.09.1.07v.06h0v0l0,.1v.1l0,0,.08.07,0,0v0h0v0l0-.14v-.11l0-.06.12.07,0,.06v0l0,.05,0,.08,0,0V149l0,.05v.05h0l0,0,0,0,0,0,0,0,0,0h0l0,0,0-.05.07,0,.08,0,.12,0h0l0,0,0-.11,0-.1,0-.11,0-.08,0-.09.06-.11,0-.07v0l0-.09,0,.05a1.27,1.27,0,0,0,.15.45c.07.13.07.13.17.17h.14a.25.25,0,0,1,.15,0l0,.06,0,.08,0,.05.06.08,0,0,0,0,0,0h0l0,0,0,.07,0,.06v.07l0,.18a2.38,2.38,0,0,0-.08.28l0,.1,0,0h0l0-.05,0,0h0l0,.23v0l0,.14c0,.17,0,.17-.07.23l-.09.05,0,.17,0,.13-.08.07-.08.05,0,.06v.05l0,.17,0,0h-.07l-.06,0,0,0,0,0,0,0a.43.43,0,0,1-.12.11l-.07.09,0,.06V152l0,.09v.09l0,0h0c-.19.21-.19.21-.24.23h0l0,.05,0,0,0,0h-.08l-.06.1a.88.88,0,0,1-.17.23l-.08,0h0l-.1.13-.07,0,0,0a.62.62,0,0,1-.17.1l-.08,0h0l0,0,0,0,0,.06-.06.07h0l0,.06-.08.07-.08,0-.07,0,0,0h-.05l0,0,0,0,0-.11v-.21l0-.13,0-.13,0-.05,0-.12,0-.07v-.31a.34.34,0,0,0-.1-.22l0-.08v-.05l0,0c-.09-.05-.09-.05-.19-.21h0l0-.09v-.06l0-.09,0-.08,0-.08,0-.05-.11-.07-.05,0-.1-.12h0l0-.05-.09-.1,0-.09v-.12a.41.41,0,0,1,0-.17.34.34,0,0,1,0-.1v0l-.12-.16c-.14-.28-.14-.28-.24-.33h0l-.14-.07,0-.07,0-.08v-.09l-.08-.13,0,0-.06,0a4.89,4.89,0,0,0-.35-.47l-.06-.08-.06-.08,0,0-.07,0,0,0s0,0,0,0l0-.07v-.16l0-.14v.08h0v.09c0,.09,0,.21,0,.3l0,0-.06,0-.08-.08-.11-.09-.08-.09h0l0-.1,0-.08-.06,0,0,0-.06-.08v0a.22.22,0,0,0,0,.08l0,.11,0,.06.07.08.08.09.06.09h0l.1.15,0,.07,0,0,0,.06.05.09,0,.1,0,.09.06.1,0,.08.15.23.06.09.06.11.12.09,0,0,0,0h0v.17l.12.14h0l.09.06.07.06,0,0,.07.13,0,.12,0,0,0,.11v0l0,.07,0,.22,0,.2,0,.06v0l0,.1h0l.08.07.06,0,.15.11.07.14c.1.21.1.21.1.32a.87.87,0,0,0,.09.32l.09.11h0l0,0,.12.08h0l.11,0,.08.08a.34.34,0,0,0,.15.19l.06.07,0,.06h0l0,.06h.06l.05.05,0,.06,0,.07v.16l0,0-.05,0-.08.1h0l.06,0,.05,0h0l.05.06v0l0,0,.07.11.11.05a.3.3,0,0,0,.19-.08l.07-.07.05,0h.14l.09-.08,0,0,0-.06,0,0h0l.07,0,.08,0,0,0,.06-.06h.11l.09-.05h0l0,0,0,0h0l.1-.06,0,0v0l.08-.07h.06l0,0h0v.06l0,.07v.29h0l.06.06,0,0h0l-.06,0,0,.05,0,.08v.18l0,.08,0,0-.11.33,0,.07,0,.05,0,.12-.08.17,0,.09,0,.15a.92.92,0,0,1-.15.34l-.08.13-.07.15a2,2,0,0,1-.19.33h0l.09,0c.07-.05.12-.13.2-.18l0,0h0l.07-.06.09-.08.05,0,0,0h.08l.06-.05.06-.06.08-.06.08,0,0,0v-.25l0-.07,0,0v-.17l0,0h0v-.06l0-.07V155l0,0v-.06h0l0-.1h0l0,0,0-.08,0,0v0l0,0v.1l0,.05v0h0v0l0-.05h0v0h0v-.06h0l0,0h0v0l0,0v0l.06,0h0l0,0v0h0v0h0l0,0,0,0h0l0,0v0h0l0,0,0,0h0v0h0l0,0,0,0,0,0h0v0h0v0l0-.07h0v.07h0v.07l0,.06h-.1l0,0,0,0,0,.05v0h0l0,0,0,0,0,0h.08v.12h0v0l0,.07h0v.1h0v0l0,.09,0,.05h0v.07l0,.14h0V156h0l0,0h0V156h0l0,.06h.06l0,0v.06l0,.07v0l0,0,.07-.09,0,0,0,0V156l0,0h0l0,0,.06,0,0,0h0v0l0,.09v0h0v0h0l0,0,0,.06v.06h0l0,0h0l0,0s0,.1,0,.15h0l0,0h0v.05l0,.06,0,0h0v0l0,.07h0v.13l0,0,0,0h0v0l0,0v0h0l0,0,0,0v.09l0,0,0,0,0,0v0l0,.07v0l0,0,0,0,0,0-.05.07,0,0h0v0l0,0,0,.06v0l0,0v0l0-.05,0,0,0-.06,0,0,0-.08,0,0h0l0,.07,0,.08,0,.16,0,0-.08.12,0,.05v.19c-.11.39-.11.39-.09.49v.07h0v0h0l0,0,0,0v0l0,.14v0h0v0a.34.34,0,0,0,0,.1v0h0v0c0,.07,0,.1,0,.26l0,.07v.13l0,.06,0,.09,0,.09h0l0-.07.07-.09,0,0h0l-.05.1h0l0,0,0,.08,0,0,0,.06h0l0,0,0,0,0,.07,0,.08,0,.07h0l0,0-.05.06-.08.09,0,.05-.06,0,0,0,0,0-.09.1h0l0,0h0l0,.06h0l0,0,0,0h0l.06,0v0l0,0-.05.05,0,0h0l0,.05,0,0,.06-.08h0l0,0,.06-.06,0,0,.05,0,0,0-.06.06-.06.06h0l-.05,0h0l-.06.06h0l0,0h0l0,0,0,0,0,.05-.07.08h0l-.06.07-.1.08h0l0,0,0,0,0,.05h0l-.06.06-.13.11,0,0-.09.1,0,0-.08.08,0,.05-.1.08-.12.09,0,.05-.08.07,0,0-.06.06,0,.05-.06.06h0L100,162l0,0,0,0h0a.67.67,0,0,1-.13.15h0l0,0,0,0,0,0h0l0,0-.07,0h-.13v-.05l0,0,0-.08,0,0v0l0-.07h0l0,0v-.14h-.09v-.06h0a.36.36,0,0,1,0-.11v0a.88.88,0,0,0,.12-.17v0h0c0-.06,0-.12,0-.19v-.06h0l-.06,0a2.26,2.26,0,0,1,0-.26l0,0h0l0-.05,0,0h0l0,0h-.1l-.06,0,0,0v-.07h0l0,.05,0,0H99V161l0,0-.09,0h0l0,.05,0,0,0,0-.08,0,0,.08v0l0,0-.16.08v0l0-.06,0,0h0l0-.06,0-.09v-.08a.88.88,0,0,0,.1-.28h0l0,0,0,.06,0,.05v0l0,.09-.16.24v0l0,.05,0,.06h0l0,0,0,0,.07-.12.07-.15h0l-.12.12-.08.15v.05h0l0,0v.07h0v0l0,0,0,0h0l0,0h0v0l0-.06h0v0h0v-.07l0,0h0l0,0-.06,0-.07,0,0,0,0,.08-.08.08,0,0,0,0-.05.05h0l0,0h0l0,0h0l-.05,0-.1.08,0,0-.09.07h0l0,0-.09.05-.07,0h0l-.08,0,0,0-.13.09h0l-.1.07-.07.07,0,0-.11.11-.06,0h0l-.06,0h0L96,163,96,163l0,0h-.1v0l0,.09v.05h0v.07h0l0,.06v.12l0,0v0l-.08.17-.09.09,0,0h0v0l-.12.08-.05,0-.09,0,0,0-.09,0-.06,0-.1,0h0l-.15.09-.08.07h0v0l-.1.12,0,0-.11.1c-.06.08-.06.08-.38.27L94,165v0l0,0-.1.07-.1.07-.08.06-.12.06-.19.1-.1.05,0,0-.14.06-.17.08-.22.08h-.1l0,0,0,0h-.1l0,0h0l-.08,0h-.13l0,0h-.2l-.06,0-.07,0h0l-.07,0h-.08v0l-.15,0,0,0h0l0,0h-.09l0,0h0v0l0,0h0v0h0v0h0v0l0,0h.09l0,0v-.12h0l0,0a.75.75,0,0,1-.06-.13v-.09l-.11-.16,0,0,0,0,0-.07,0-.05h0v0l0,0v0h0l0,0v-.25l0,0s0,0,0-.25v0l0-.05h0v0l0,0,0-.1,0-.07,0,0,0,0,0-.1h0l0-.08,0,0,0,0,0-.09h0l0-.06,0,0-.08-.11,0-.07v0l0-.06h0V163l0-.08v-.15l0,0,0,0,0-.07,0-.06,0-.06v0l0-.08v-.06l0,0,0-.11,0,0,0,0,0-.07c0-.06,0-.06.11-.07l.08-.09,0,0,0-.1v-.2l0-.06,0,0v0l0,0,0-.05,0,0v0l0-.1,0-.06h0l.07,0h0v-.1l0-.1-.07-.12,0-.06,0-.12,0-.08v0l-.06-.07-.06-.07,0,0,0,0,0,0v-.05h0l0-.07-.06-.11,0,0-.08-.11-.08-.12-.09-.08-.07-.06-.07-.06-.07-.07-.05-.05-.08-.09-.08-.17,0-.07,0,0-.07-.14v0h0l.06,0,.06-.1v-.11l.06-.06h0v-.19h0l-.06,0,0-.07,0,0,0-.06a.42.42,0,0,0,.06-.19v-.13l0-.09,0-.06,0,0,0-.14v0h0l0,0h0l-.06,0,0,0,0-.07v0l0-.05h-.2l0,0h0l-.14,0-.06,0h0l-.07,0h0l-.05,0,0,0h-.12l-.08,0,0,0-.08-.17-.06-.12,0-.09-.15-.14-.07-.05-.06,0h-.39a1,1,0,0,0-.4.08h0l-.08,0-.06,0h0l0,0h0l-.1,0-.13.07,0,0-.09.08,0,0h0l0,0-.12,0h0l-.06.05-.08.06-.14-.06-.09,0h0l-.15,0-.1,0h-.54l-.15,0-.09.06a1.2,1.2,0,0,1-.32.11h0l-.11,0a.7.7,0,0,1-.21-.21l0,0-.11-.08a2.43,2.43,0,0,0-.3-.24h0l-.07,0,0,0-.07-.09-.07-.06,0,0,0,0-.06-.08-.09,0,0,0-.05-.05,0-.06,0,0,0,0,0-.05,0,0,0,0,0,0,0-.06v-.23l-.09-.1v-.12l0-.07h0l0,0h0l-.06-.05v0l0,0,0-.06,0-.09h0V155L83,155h0l-.07-.07,0-.1h0l0-.08,0,0h0l0,0-.07,0,0,0,0-.06,0-.05,0,0h0l-.06-.12,0-.07,0-.07,0-.07,0-.06,0-.09,0,0,0,0,0-.07,0-.09,0,0h0l0-.08,0-.11.07-.11,0,0,.11-.18v-.18l0-.14,0-.1,0-.08,0-.1v0l0-.19,0-.16v-.05l-.06-.13V152l0-.08h0l0-.09,0-.09,0-.06,0,0v0l0,0,0,0v0l0,0h0v-.17l0-.1,0,0,0-.13v0l.13-.11,0,0v-.07l.05-.13v0l0-.07,0,0,0-.1,0,0,.06,0,0,0,.08-.1,0-.06,0,0v-.09l0-.08,0-.07,0-.08,0-.09.06-.09,0,0,.13-.06h.08l0-.14,0-.08,0-.09.09-.07,0-.07h.09l.17,0,.1-.05,0,0,.08-.07.14-.09h0l.1-.08h0l0-.08,0-.06.1-.13.08-.11v-.25a.2.2,0,0,1,0-.07V148l.07-.1,0,0,.07-.17.07-.11h0l.15-.13.17-.09.08,0,.08,0,0,0,.11-.09.07-.1,0-.06.07-.12v0l.06-.13,0-.09,0,0h.09l.07.05v0l.07.11.06,0h.2l.08,0h.1l.07,0,0,0,0,0,.08,0,.16,0h0l.09,0,0,0,0,0,0,0,0,0,.06,0,0,0h.16l0-.06.16-.09h0l.15,0,.12,0h.12l.05,0,.06,0h.16l.07,0,0,0h.22l.09,0v0l0,0,0,0,0,0,0,0,0,0h0l.09,0h0l0,0,0,0,0,0h0v0h0l0,0,0,0h.1v0l0,0,.09.05,0,0,.23,0,.07,0,.09-.05.08,0,.11,0,0,0,0,.06h0l.1,0,0,0h0v.08l0,.05,0,.08h0l0,0-.05.09v.05l0,0,.08.12v.12l0,.13,0,.05-.07.1,0,.06,0,.09.07.09h0l.06,0h.06l.07,0v0a.19.19,0,0,1,0,.08l.1,0h0l.09.05a.37.37,0,0,0,.27.08l.17,0a.2.2,0,0,1,.21.05l.06,0,0,0,.14.05.06.14.06.13.14.07a1,1,0,0,1,.55.13h0l.14.1.08,0h0l.13,0,0-.06.06-.17v-.08l0-.09,0-.11,0-.11v0l.09-.07h0l0,0,0-.05.09,0h0l0,0h.16l.09,0,0,0,.12,0,.06,0a.34.34,0,0,1,0,.1h.21l.06,0,0,0h.05l.08,0h0l.1,0,.07.11,0,0,.12,0h0l.06,0H95l.06,0h.1l.13,0h.11l0,0,0,0h0l.07,0,0-.05,0,0,0,0h0v0l0-.07.07,0,0,0,0,0,0,0,.07,0h.17l.08.07.07,0h.1l0,0,0,0h0l0,0h.12l0,0,0,0,.08-.1v-1l0-.08h0l0,0-.05-.09,0-.06,0,0,0-.05,0,0V146h0v-.06h0l0-.07h0l0,0-.06,0h0v0l0,0,0,.07h-.1l0,0-.06,0h0v0l0,.05,0,.06,0,.06,0,0h-.06l0,0,0,0H96l-.07,0,0,0,0,0-.1,0-.09,0h-.13v.17h0l0,.06v0l0,0h-.2l0,0,0-.05v-.11h0l-.06.05h0L95,146h0l0,0,0,0v.12l0,.09-.08.07,0,0,0-.1.1-.09,0,0v0h0l-.07,0H94.7l.06-.08,0,0,0,0v0h-.1v0l0,.07-.1.1,0,0v0l0-.08,0,0,0,0h0l0-.07h0l0,0,0,0v-.07H94.5l0,0h0v-.1h.08l0,0v-.05h0v0h-.12l0,0,0,0,0,0,0,0v0l0,0,0,.05v0H94.2l0-.11,0-.05h.1l0,0,0,0h0v0l0,0v0l0,0,0-.07v-.06l0,.05,0,.07h0v0l0,.05h-.12l-.06-.05v0l.06-.06h0v0l0-.09V145l.05,0h0l0-.09,0,0h-.1l-.08-.11,0,0h-.3l0,0-.07.08,0,0v0l0,.08,0,0,0,0H93.4l-.08,0,0,0,0,0v.12l0,.06,0,0,0,0,0,0,.1.1,0,0,0,.06,0,0h0l.06.06h0l0,0,0,.05,0,0h.06l0,.06,0,0h-.07l-.06,0h0l0,0,0,0,0,.08v0h-.06l0,0,0,0h-.08l0,0,0,0,0-.06,0,0,0,0,0,0h-.4l0,0h0l-.07-.08,0,0,0-.06-.09-.08h0l-.06,0-.05,0-.07,0-.08-.11,0,0h0v0h0l-.06,0-.09-.07,0-.1v0a.28.28,0,0,0,0-.09v-.05l0,0h0l0-.06,0,0v0h0l-.11-.08-.08-.07-.19-.12,0,0-.11,0h-.24v-.06l-.05,0h0l-.1-.07h0l0-.05h0L91.4,144h-.09l0,0a.11.11,0,0,0,0-.05v-.07l-.06-.08,0,0v.07l0,0-.07,0,0-.06v0l0,.07h0l0-.06v0l0-.05-.06-.08v0l0,0h-.06l-.08.06h-.06v.07h0l0,.05v.05l0,0h0v.11l0,0,.06,0,.12.07.14.12,0,0v0l0,.11,0,0,.06.08,0,0,.07.06.07.05.05,0h0l0,0h.13l.08.06v0l0,0h0l0,.05.15.05.08,0,.05,0,0,0,0,0,0,0h0l.09.06h0l.09.13v.12h0l-.12-.13,0,0H92l0,0,0,0v0h0v.05l0,.1h0v0l0,0,0,0,0,0h0l.07,0v.19h0l0,0h0l0,0,0,.06v.09l0,0h0l0,0v.05h0v0l0,0,0,0h0l0,0h0v0l0,0h0l0,0,0,.07v.08l0,0,0,.1h0l0,.09h0l-.06,0H91.4l-.06-.06,0-.05h0l-.08,0,0,0-.06,0-.09,0h-.07l0,0,0,0,0-.09h0l0-.07h0l0,0h0l.08,0h0l.06,0,0,0,0,0h.12l.07-.05.08,0h.07l.09,0h0l0,0v-.07l0,0h0l0,0v0l0,0v-.08l0,0h0v0l0-.09,0,0h-.09l0,0,0,0-.06,0v0l0-.06h-.13V145h-.1l0-.06v0h0l0,0,0,0H90.8l0,0-.07,0,0,0,0-.06v0h0l0,0,0,0,0,0v0h-.13v-.05h0l0-.05h0l0,0v0h0l0,.05,0,0,0,0,0,0,0,0h.06v-.09l0,0,0-.08v-.06l0-.05h0L90,144l0,0,0,0,0,0h0l0,0-.07,0,0,0,0,0,0,.05,0,0,0,.08,0,0H89.4l-.08.05h0l-.09,0h-.13l-.08,0-.21,0h-.1l0,0-.09.08v0l0,.08v.07h0l0,.15-.07.08-.06,0-.14.1,0,0a.6.6,0,0,1-.18.07A.3.3,0,0,0,88,145v0c0,.1,0,.1-.16.25l-.14.15v.15l0,.06,0,0,0,0,0,0,0,0-.07,0,0,0,0,0,0,.05v.16l0,0h-.11l-.07,0,0,0-.05.09-.07.08,0,0h-.22l-.08,0-.13,0h-.21l-.05,0h0l0,0v0l0,0,0,0-.08,0h0l0,0-.06-.08,0-.11v0c0-.1,0-.12-.11-.13l-.07,0h0l0,0,0,0-.08,0h0l-.05,0h-.08l0,0,0,0,0,0h0l0,0,0,0V146c0-.09,0-.09,0-.12l0-.05,0-.08v0h-.07l0-.09h0l0-.13,0-.09v0l.06-.08,0-.08.05-.11a1.67,1.67,0,0,0,.07-.24v-.23l0-.13v-.07l0-.06h0l0,0,0-.06v-.09h0l.1-.06h.09L86,144l.06,0h.08l.06,0v0h.12l.09,0h.26l.13,0H87l0,0,0,0,0,0,0,0,0,0h.09l.06,0,.07,0h0l0,0,.05-.13,0-.14v0l0-.09,0-.09v-.11l0-.13-.08-.08h0l-.06-.05,0,0V143l0,0,0-.07v0h0l0,0,0,0,0,0-.06,0-.06,0H87l0,0v0l0-.06-.06-.06v0l.07,0h0l.12,0,.06,0h.08l.07,0v0h0l0,0h.13l0,0h0v-.14h0l0-.08v-.08h.05l0,0h0l.07,0v.07h.22l0,0h0v0l0-.06h0l.13,0,.1-.05.07-.12v-.11l0,0h0l0,0,.06,0h0l.06,0,0,0,.07,0,0,0,0,0,0,0,0,0,0,0,0,0,0,0,0-.07v-.06l0-.06h0l0,0,0-.06,0-.05.05,0h.23l0,0,0,0,0,0h.11l0,0h0l0-.08h0l0,0,0,0h0l0,0v0h0l0-.06h0l0,0h0v-.05h0v0l0-.05,0-.12v-.16a.66.66,0,0,1,0-.14l.06-.1,0,0,.06,0,0,0h0l.06-.06,0,0,.07-.06H90v.1l0,.08v.11l0,.05v.12l0,.1-.05.1v0l0,0,0,.05,0,0v.09l.09,0,.08,0h0l0,.08h0l-.06.07h.11l0-.05h.06l.07-.06.07,0h0l0,0,.06,0v0l0,.06.06,0v0h0l0,0,.09,0,0,0a1.14,1.14,0,0,0,.27-.14l.09,0,.15-.06h.09l0,0,0,0,0,0v0h.08l0,0h0l0-.06,0-.1h.08l.06-.07v-.12l0-.07v0l0-.14v-.12l0-.05V140h0l.1-.11H92l.12.08,0,0,0,0,.08,0h0l.06,0v-.07l0-.09v-.15h0v0h0l-.07,0-.07-.05h0v.06l0,0H92l0,0,0,0v0l0,0h0l0-.05h0l-.05-.06,0,0h0l.07-.06h0l0,0v0h0l0,0v-.08l0,0h0l0,0,0,0,.08,0h0l0,0,.06,0h0l.09,0,.08,0h.16l0,0,0,0h.07l0,0,0,0,.07,0h0l-.11,0-.06-.06H92.6l-.06,0h0l-.05,0H92.4l-.05,0h-.09l0,0,0,0h-.12c-.1,0-.21,0-.31,0l0,0h0l0,0h-.09l0,0s0-.05,0-.07h0l0-.06v-.1l0,0,0-.06,0,0v0l0,0h0v0l0,0v-.12l0,0h0l0,0,0-.07.07-.06v0h0l0-.05.08-.12v0l0,0,0,0,0,0,.06,0h0l0,0,0,0,0-.06h0l0,0h0l0,0h0l-.13,0a.61.61,0,0,0-.14.16l0,0h0l0,0,0,.06v.08l0,.06,0,0,0,0,0,0,0,0,0,0-.05,0h0l0,0h0v0l0,0,0,0h0v.06l0,0,0,0h0l0,0v0h0v0h0v.07h0a.15.15,0,0,0,0,.09v0l0,.08,0,0h0l.09,0h0v0l.06,0h0l0,.08h0v.08h0v.1l0,0h0l-.06,0-.07.06-.06,0h0v.28a.25.25,0,0,0,0,.13l0,0h0v.21l0,.09h0l0,0v.05l0,0h-.27l0,0v.13h-.18l0,0h0l0,0-.08.12h0l0,0,0,0h0l-.06.06,0,0,0,0,0,0-.06,0,0,0a.18.18,0,0,1,.1-.06v0h-.09v-.06l0-.05v-.08h0l0,0,0,0h0v0h.05l0-.07,0,0h.05l0,0v-.07h0l-.1-.11-.06-.08,0,0,0-.08v0l0,0,0,0,0-.12v0h0l0-.1h0v0H90l0,0,0,.07,0,.05h-.06l-.08.09v0l0,0,0,.06,0,0h-.08l-.1,0h0l0,0h0l-.07,0,0,0h0l-.06-.06h-.07l0-.14,0,0h0l0,0h0l0,0h0l0,0,0-.06h0l0,0v-.09h0l0,0h0v-.09h0l0,0,0-.09h0l0,0V139l0-.06v-.14l0,0,0,0h0l0,0,0,0v0l0,0h0l0,0,0,0,0,0,0,0v-.1h0l0,0h0v-.07l0,0v-.07l0,0,0,0v0h0l0-.06,0,0,0,0v0l0,0h0l0-.06v0h0l0,0h0l0-.08.07-.06h0v0h0v0l0,0h.06v0l0,0h0l0,0v-.24l0,0h0v-.05l0-.06v0l0-.07h0l0,0,0,0,0-.06v-.18l0,0,0,0,0,0,0,0-.1.05h0v-.06h0l.14-.08h0v-.19l0,0v0h0l0,0,0,0h0l0,0h0v0l0,0h0l0,.06h0l0,0h0l0-.06,0,0h0l0,0h0l0,.06h0V137h0l0-.05v0l0,0,0,0h.06l0,0h0l0,.06v0h0l0-.09v0l0,0H91l0,0v0H91l0,0H91l.06,0,0,0h0v.05h.06l0,0v-.12h.06l0,0h0v.05l0,.05,0,.1h0l.07-.14,0,0,0,0h0a.14.14,0,0,0,0,.06v0h0l0,0v-.11h0l.08,0h0l0,0v0l0,0h0v.07h0v-.06l0,0h0l.06,0,0,0h0l.08,0,0,0v0h0l0,0H92l0,.06H92v0h.09l0,0,0,0v0h.07l0,0h0l0,0v0h.06l0,.05h0v0l0,0h.21l.24.08.09,0,.06,0h.26l0,0,.06,0h.08l.06.06v0l0,0,0,0,0,.08v.1l0,.07h-.16l-.06,0-.2,0H93l-.07,0h-.26l-.05,0,.09.05,0,0,0,0h.12l0,0,0,0,0,0v.12l0,0,0,0,0,0h0l.06.08,0,0h.13l0,0h0l.09,0h.11v0h0l0,0,0,0h0l0,0,0,0-.17-.11v0h0v-.09l.06,0v0l.06,0h.29l.06,0,0,0a.45.45,0,0,0-.14-.11l0,0v0h0l0-.07v-.06h0l.05,0,0-.05v-.06h.13l.08.06h.07l0,0,0-.1,0,0-.2-.07v0h0l0-.1,0-.08h-.07l-.06,0v-.05h.1l.08,0h.07l.08,0,.06,0h0l.06,0h0l0,0H94l0,0,0,0h0l.06,0h0l0,0h.15l0,0v0h0l0-.06,0,0v0h0l0,0h0v0h.06v-.08l0,0h0l0,0h.07v-.07l0,0h0l0,0,0,0h0l.06,0v0l0,0h0l0,.06h.11v-.07h0l0,0,0,0H95l0-.05,0,0h0v0h0L95,136.5l0,0h0l.08.05,0,0h.05l0,0h0v0h0v0h0l0,0v0h0l0-.06h-.06l-.07,0H95l0,0h-.07l-.09,0h0l0,0v-.06h.09l0,0H95l0,0v0h0v0h0s.08,0,.1,0h.17l.06,0h.05l.06,0,.11,0h.13l.11,0,0,0,.14,0,0-.08,0,0h0l0,0h-.06l0,0h0l-.07,0h0l0,0v0l0-.06,0,0-.09,0,0,0v0h0l-.05,0,0,0h-.1l0,0h0v-.13h0l0-.05,0,0,0,0h0l0,0,0-.06,0,0h0l0,0,0,0,0,0h0l0,0,0,0h.07v.05h.2l.14.1h0l0,.07,0,0v0l.06,0h.08l0,0,0,0,.09.07v0h0l0,0,.06,0,0,0,.06,0,0,0,0,0h0l.13,0h.05l0,0,0,0h0l0,0,0,.06,0,.09v.05l0,0,0,.05v0h0l-.08.06h.27l0,0v0l0-.07h0v0h0l0,0,0,0,0,0h0l-.06-.07,0,0h0l-.06,0-.07-.05-.06,0v0h0v0h0l0,0,0-.05h-.08v0h0v0h0l0,0,0,0h0l0,0-.06,0-.07-.06h0l0-.05,0,0,0,0,0,0h0l-.06,0,0,0h-.09l0,0,0,0h0l0,0,0,0v0h0l0,0,0,0,0,0v0h.07l0,0,.08.05h0l0,0,0,0,0,0h0l0,0,0,0h0v0H96l0,0h-.16l0,0h0l0-.06h.08l0,0h-.16v0l0,0,0-.05h0v0h0v0h0l.06,0h0l0,0v0h0v0H96l.15,0,0,0h-.06l-.06,0H96l-.07,0,0,0,0,0,0,0h-.08l0-.06v0l.1-.09h.06v0l0,0v0h-.19l0,0,0,0h0v0l0,0,0,0h.06v-.08h0l0,0h0v0h0v0h.05v0h0v0h0l0,0h0v0h0v-.05h0l0,0h0l0,0-.07-.05,0,0h0v-.06l0,0h.09l0,0,0,0h0v0l.08,0h0l0,0,0,0h0l0,0,0,0h.09l0,0h.18l0,0h0l.07,0h0l.06,0h.07l0,0h.08l0,0h0l0,0h0l0,0v0h0l0,0h0l0,0h0l0,0h0l0,0h0l0,0v0h0v0h0l0,0h0l0,0,0,0,0,0h0l0,0,0,0v0h0v0h0l0,0h0l0,0,0,0h0v0h0l0,0h-.07v0l0,0h.09l0,0,.05,0h0v.05h.08v0h0l0,0h.06l.07,0h0l0,0h0v0h0v0h.26l0,0h0v0h0l0,0h0l0,0,0,0v-.06h.12v0h.11l0,0h.18l.06,0h0l.08,0h.25l-.07,0h0l0,0,0,0-.09,0,0,0h.16v0l0-.06v0h0l0,0h.07l0,0h0l0,0h0l0,0h-.08l0,0h0v0h0v0h-.07l0-.08,0,0h0l0,0h0l0,0,0,0,0,0h0l.1.06h0l0,0h0A17.89,17.89,0,0,1,106.65,147.54Zm-9.72-11.21h-.05l0,0h0l-.06-.05-.06,0-.07,0h-.1l0,0,0,0h.06l.22.16h0ZM106.72,149h0v.19A1.15,1.15,0,0,0,106.72,149Zm-.41,4v.06h0l0-.16,0,.06Zm-35.18-6.71,0,0v-.05l0-.08v-.06l0-.29v-.05h0l0-.06v-.13c-.06.31-.11.62-.16.94l0-.14Zm0,.18v.14l0-.14Zm5.09-7.67,0,0,0,0,0,0h0l0,0,0-.05,0,0,0,0,0,0,0,0,.07-.05,0-.05v-.06l-.06-.09-.47.57h0Zm3.94,26v0l-.07,0,0,0h0l-.09,0,0,0,0,0h0a18,18,0,0,1-8.61-12h0v-.05c-.07-.34-.12-.68-.17-1v0l0,0,0,.08v.05l0,.08,0,.09,0,.06,0,.12v.1h0v-.11h0l0-.12v0h0v-.15h0v0h0v-.36l0-.05,0,0h0v0h0v.09h0v-.11h0v0l0,0h0v0l0,0,0,0h0v0l0-.06h0l0,.12v.11h0v.06h-.06v.21h0v-.12h0v.09h0v0h.08v0l0-.06v-.13h0v0l0,0v.18h0l0,0h0l0,0h0l0,0,0,0h0v0l0,.06h0l0,0V152l0,0h0v.05l0,0,0,0,.07.05h.1l0,0h0l0,0v.1h0l0,0,0,0h0l0,0h0l0,0h0v-.07h.09l0,0,0,0h0l.05,0h.08l0,.06v0h-.08l0,0h0l0,0h0v0h0l0,0v.06l0,.06v.05l0,0h0l0,.07v0h0l0,0,0,0,0,0,0,0,0,0v.2h0v.07h0l0,0,0,0h0l0,.08,0,.06v0l0,0,.07.12a1.1,1.1,0,0,1,.1.29v.18l0-.07h0l0,0,0,0,.06.13,0,0,0,0,0,0,0,.09h.06l0,0,.07.05h0l.05,0,0,0,0,0h0a.69.69,0,0,1,.17.11h0l.09.1,0,0h0l0,0,.23.38,0,.05,0,0,0,0,.06.11v0l.06.19,0,.1,0,0c.07.23.07.23.16.33l.1.17v.33l0,0h0l.07.09v0l0,0,.19.1,0,.13v.16l0,.07h0c0,.06,0,.06,0,.17v-.11h0l0-.08,0-.06,0-.13h.13l.44.36,0,.05h0l0,0,0,0v0h0l0,.1,0,0,0,0v.08h0l.05,0V158l0,0,0,0,0,0h0c.12,0,.16,0,.25.1l.09.06a.39.39,0,0,1,.19.09h.22a3.41,3.41,0,0,1,.66.59l.1.1h0l0,.05,0,0,0,0h0l.09,0h.13c.26.11.47.8.47.8.09.39-.12.73-.17,1.1v0l0,.08,0,0h0l.06.11,0,.06a2.39,2.39,0,0,1,.12.22l.08.13.06.1v0L79,162l0,.06,0,.11,0,.16.09.12,0,.08v.07l0,.08v0l0,.08v0l0,0,0,.07.07.08-.05.05,0,0,0,0,0,.05h-.06l-.08,0-.08,0H79v0h0v0h0l.06.06h0l-.05,0-.07,0h0l0,0,0,0v0l0,0,0,0v0l0,.07,0,0,0,.05,0,.06.16.13.06.07c.11.12.11.12.13.16v0l0,.06,0,.06h0l.06.05,0,0,0,.05,0,0,0,0,0,0h0v0l0,0h0l-.06-.06h0l0,0h0l0-.06h0l0,0,0,0,0,0,0,0,0,0h0l0,0,.07.08.09.08.08.06h0l.05.06,0,.05Zm-8.49-12.53a.66.66,0,0,0,0-.14v0l0-.08h0V152l0-.05h0v-.07h0v.06h0v.2l0,.09v.13h0Zm10.81-14v0l-.07.06,0,0,0,.05-.05,0-.06,0-.06.05-.06,0,0,0-.11.08-.07,0h-.07v-.07h-.1v0l0,0v-.09h0l0,0v0h0l0,0h0v-.05h0l0,0h-.07v-.05h0l0-.07v0h0l0-.07h0l0-.06h0v0l0,0h0v0l0,0,0,0,0,0h0l0,0h0v-.06l0,0,0,0v-.06l0,0h0l0,0,0,0,0,0h0v0h0l0-.06,0,0,0-.06.06-.06h0v0h0l0,0h0l0,0h0v0h0l0-.06,0,0h0v0l0-.06,0,0,0,0h.06l0,0h-.06v0l0,0,.06-.05,0,0v0l0,0,.06,0h0v0l0,0h0l.07,0,.07,0,0,0h.16l0-.05h0l.05,0,.08-.08,0-.05h0l0,0H83l0,0h0v.05h0v0l0,0h0v0h-.2l-.08,0h0v-.13l0,0,0,0h0l0,0v0l0,0h.06v0l0,0h0l.06,0h0l0,0h.06l0,0h0l0,0,0,0h0l0,0,0,0h0l0,0,0,0h-.09l0,0h0l0,0h0l0,0,0,0,0,0h0l0,0,0,0,0,0h0l0,0h0v0h0l0,0,0-.05h0l.06,0h0l0,0h0l0,0,0,0-.08,0h0l0-.06,0,0h0l0,0,0,0,0,0-.07,0-.05,0v0l.11-.06h0l0,0s0,0,0,0l.07,0,0,0,.07,0h0l0,0h0l0,0,0,0v-.05l0,0h.07v0l0,0h-.08v0H83.5v0l0,0h0l-.06,0h0v0h0l-.05,0h-.08v0l0,0,0,0,0,0,0,0v0l0,0h-.11v0h0v0l0,0h0v0h0l0,0,0,0h-.07V135l0,0h0l0,0h0l0,0h0l0,0h0v0h0v0h0v-.06l.06,0h0l.06,0h.1v0h0l0,0h.08a.38.38,0,0,1,.28,0h.1l.06,0,0,0h0l-.1,0v0a1.22,1.22,0,0,1,.41-.06v0h0v0l0,0h0l0,0h0l0,0,0,0s0,0,.1,0h.39l0,0v0l0,0h0l0,0,0,0h0l0,0h0l0,0h0v0h0v0h.07l0,0,0,0h.19v0h0v0h.06v0h0v0l0,0h-.07v0l0,0,0,0h0v0h.42l0,0h0l0,0v0h0l0,0h0v0h0v0h0l0,0h.05v0h.26v0h0l0,0h0l0,0h0l0,0h0l0,0,.08,0,.1,0h0l0,0h0l0,0h.1l0,0h0l0,0h.1l0,0h0v0l-.06,0H87v0h0l0,0h0l0,0h.09v0h0l0,.05h0l0,0,0,0h0v-.07h0l0,0v0h0v0h0l0,0h0v.06h0l0,0h.34l.05,0v0l0,0h0l0,0h-.08l0,0h0v0h0l0,0h-.06l0,0h-.07l0,0h0v0l0,0H87.2l0,0h0l0,0v0h-.1v0l0,0H87l0,0,0,0-.07.07,0,0h0l0,0h0l0,0H87v0h0v0l0,0h0l0,0h0l0,0h.13v.08l0,0h0l0,0h0v0l0,.08h0v-.12h-.14l0,0h0l0,.06h0v.05h0v.07l0,0v0l-.06,0h0v0h.06l0,0c0,.06-.09.09-.23.09h0l0,0h0l0,.07,0,0h-.18l0,0h0l0,0h0l0,0,0,0,0,0h0v0l0,0-.11.13h0l0,0h0l0,0-.05,0v-.07l.06,0h0l0,0h0l0,0h0l0,0,0,.05h0v.06l.14.12h0l0,.06,0,.08v0l0,.1,0,0h0l0,0h0l-.06,0h0l-.06,0h0v-.07h0v0h0l0,0h0l0,0h0v0l0,.06h-.07l-.08,0h.06l.07,0h0l0,0h0l.13.05H86l0,0a1.2,1.2,0,0,0-.18.07l-.07,0-.06,0-.06,0h0l-.06,0h0l-.08,0h-.07a1.38,1.38,0,0,0-.33,0h-.27v0h0l0-.06h0v0h0v0l0,0v.05l0,0h0a.32.32,0,0,0-.15.06l-.06,0h0l0,0,0,0-.09.06,0,0-.12.06H84l-.06,0-.05,0h-.06l-.08,0h0l-.08,0h0l0-.05h0l0,0,0,0h0l0,0H83.4l-.05,0-.06.05-.05,0v0h0l0,0v0l0,.1-.06,0-.16.13-.07.05-.13.07-.08,0-.06,0-.08.06,0,0Zm1-3.34h0Zm-2,1.88h0l-.06,0h-.07l0,0,0,0,0,0h0l-.05.06H81v0h0l0,0,0,.05,0,0h0l-.06,0h-.08l0,0,0,0h0v0l0,0h0l0-.06,0-.07,0,0v-.07h0l0,0h0l-.05.05,0,0v0h0l-.06,0h0l0,.07,0,0,0,0v.09h0l0,.09v0l0,0-.05,0v-.06h0v0h0v0l0,.08-.06.07,0,0,0,0h0v0h0v0l0,0h0l0,0,0,0,0,.05,0,0,0,0,0,0,0,0v0h0l-.07,0h0v-.08l0,0s0,0,0-.06,0,0,0-.06v-.14l0,0h0l0,0a.15.15,0,0,0,0,.07h0a1.05,1.05,0,0,1,0,.13l0,.08,0,0,0,0,0,0h0l0,0h0v-.08l0,0v0h-.07l0,0h0v-.14h0s0,0-.07,0,0,0,0,0v-.05h0l0,0h0l0-.06,0,0h0v0l.07,0,0,0h0v0l0,0,0,0v0l0,0h0v0h0l0,0,0,0h0v0h0l-.05.06h-.07v-.06h0v0h-.11l-.08,0v0l0,0s0,0,0-.05v0l0,0,.13-.06,0,0h.06l0,0,0,0,0,0v0h0v0h0v0h0l.06,0h0v0h0l0,0h0l0-.05,0-.08h0l.21-.06h.1l0,0h.1l0,0,0-.07,0,0h0l0,0h0v0l0,0h0l0,0h0v0l0,0v0h0l0,0H80.6v0l.09-.05h0l0,0h0l0,0h0l0,0,0,0h0v0h0v0l0,0,0,0H80.7v0l.08-.05h.09l0,0v0h0l0,0,0,0h0v0h0l0,0,0,0h0v0l0,0v0l0,0-.09.08h0l-.06,0h0l0,0h0l0,0,0,0h0v0h0l0,0h0v-.13h-.11l0,0h0l0,0h0l-.05,0,0,0-.06,0-.06,0h-.06l-.05,0h-.06l0,0,0,0,0,0-.07,0,0,0,0,0c-.07,0-.07,0-.09,0h0l0,0-.06,0,0,0h0l0,0,0,0v0h0l0,0h0v0l0,0h0l0,0,0,0h0v0h0v0l0,0h0v0l0,0h0v0h0v0l.06-.06,0,0h0v0l0,0h0l0,0h0l0,0h0l0,0-.06.05,0,0,0,0h0l0,0,0,0h0l.06,0h0l0,0,0,0v0l0,0,0,0v0l0,0h0v.07h0l0,0,0,0v0l0,0,0,0h0v.06l0,0h0l0,0H79v-.07h0v0l0,0h0l0,0h0l0,0h0l-.09,0h0l-.07,0h0l0,0h-.08v0l.08-.06.06,0h0s0,0-.1,0h0l.05,0h0l0,0h.12l0,0h0l0,0,0,0,0,0,.06,0h0l.07,0h0l0,0H79.1v0h0l-.06,0h-.06l-.06,0h0l0,0-.07,0h-.09v0h0v0h0l0,0-.06,0,0,0-.06,0h0l0,0h0v0h0v0h0v0h0v0l0,0v0h0v.09l0,0v0h0v0l-.06.05,0,0,0,0h-.11v-.05h0l0,0,0,0h-.16l0,0h-.14l0,0h-.07l0,0,0,0-.06,0h0l0,0h0l0,0-.07,0,0,0-.06,0,0,0,0,0,0,0h0l0,0,0,0,0,0v0h0v0h0l0,.06,0,0,0,0,0,0,0,0h0l-.06,0h0l0,0,0,0-.05,0h.1v.14h0l0,0,0,0h0l0,.07,0,0,0,0h0v.16l0,0,0,0-.06,0h.1a19.91,19.91,0,0,0-1.81,2.48,19,19,0,0,1,1.33-1.86v0l0,0,0,.06,0,0h0v0l0,.06,0,0,0,.06,0,0h0l0,0h0v0l0,0h0l.08-.05h0v0l0,.08,0,0h0l0,0,.06-.06h0l.11-.07,0,0,0,0,0-.06,0-.05.06-.06h0l0-.06,0-.05,0,0,0,0,0,0v0l.08-.1,0,0,.08,0h.1l.09,0a1.38,1.38,0,0,0,.66-.37l.12-.14c.11-.25.11-.25.22-.29h.07a.43.43,0,0,1,.21-.08h0l0,0,.09-.09,0,0v0l0,0,.13-.07.09,0h0v0l.06-.08,0,0,0,0,.07,0H79l0,0v0h0l0,.05h0v0h.18v0l0,0v0h0v.09l0,0h0v0l0,0h0l-.06,0h0v0l0,0,0,0,0,0v0l0,0h0l.06,0h0v0h0l0,0,0,0-.06,0h0l0,0,0,0,0,0,0,0h0l0,.05-.07,0,0,0v0l0,.05,0,0h0l0,0,0,0,0,0h0v0l0,0h0l.06,0h0l.08,0,0,0H79v0l.06,0,.09-.05.09-.06.09-.06.11-.05,0,0,.09-.07h0l0,0,0,0,0,0,0,0,0,0,0,0v0h0v0l0,0,0,0v.1l0,.05h0v0l0,.07,0,0,0,0v.08l0,0,0,0,0,0h0l0,0h0l0,0L79,139l-.08.06h0v0l0,.06,0,0h0v0l0,0,0,0,0,0,0,.1,0,0,0,0v.08h.07v.09h0v0H79l0-.06v.05h0v.05h0v.05l0,0,0,0h-.16l-.08,0h0l0,0h0l0,0h.22v.07l0,0v0h0v.09l0,.08v0l0,.05h0l0,0,0,0,0,0v0l0,.05,0,.05,0,0,0,0,0,0h-.07l-.05,0,0,0,0,0h-.06l0,0v0h0l0,0,0,0h0v0h0l0,0H78l0,0h0l0,0h0l0,0h-.07l0,0-.06,0h0l0,0,0,0h-.11l0,0,0,0v-.1a.3.3,0,0,0-.14-.07l-.08,0a.48.48,0,0,0-.17-.05c-.13,0-.13,0-.21,0h-.07l0,0,0,0,0,0,0,0h-.2l0,0-.06,0-.06,0,0,0-.12.06h0l-.07.05,0,0-.15.07-.07,0-.06,0h0l0,0c.58-.32.58-.32,1-.31h0s.07,0,.09.09v0l0,.09h0l-.06.06,0,0h0l0,0h-.16v-.09h0l0,0h0l0,0v0h.08l0,0h0v0h0l0,0,0,0,0,0h0l0,0h0v0l0,0,0,0,0,.06,0,0h0l0,.06h0l0,.06,0,0,0,0h0l0,0h0l0,0,0,0h0v.1h0l0-.05,0,0,0,0,.05,0,0,0,0,0,0,0,.06,0h.07v.11h0l0,0,0,0h0l0,0v.05l0,0v0l-.06.08-.06,0H76.5l-.09.06h0l-.11,0h-.17l0,0h0l0,0h0l0,0h-.06l0,0,0,0v-.05h0l0,0,0,0,0,0,0,0-.06,0,0,0-.07,0,0,0h-.11V142l0-.06,0,0,.08-.09,0,0,0,0h.07l0,0,0,0c.07,0,.07,0,.13,0h0l0,0v0h.07l0,0H76v0l0,0h.06l0,0,0,0,0,0,0,0,0,0h-.07l-.06,0,0,0h0l0,0,0,0v0l0,0H75.7l0,0,0,0h-.22l0,0,0,0-.08,0v0l0,0h0l0,0h0l0,0,0,0-.05,0-.06,0H75l-.09.08h0l-.09.07,0,0,0,0,0,.06,0,0h0v0h0l0,0v.1h0l0,.06v0h.06l0,0,0,0v.07l0,0,0,.05,0,0h-.06l-.09,0v0h0l.05,0,0,0h0l0,0h0v0l0,0h0v0h0v0l-.09.07-.07,0H74.2l0,0h.09l0,0h0l0,0h-.19v-.07h0l0,0h0v.05l0,.07h0l-.06.06,0,0,0,0h0l0,0-.05.05,0,0,0,0h0l0-.05,0,0v-.07l0,0,0,.06,0,0,0,.07,0,.07,0,.06h0l-.1.1,0,0h0l0,0,0,0,0,0-.08.08h0l0,0v0l.06-.09,0,0h0l0,0,0-.06,0-.08,0,0,.07-.12.06-.06,0,0h0l-.07.07v0l0,0,0,.05,0,0v0l0,0v0l0,0v0l0,.06h0V143h0l0,0h0v.07h0v0l0,0v0l0,.05v0l0,.06H73v.06c0,.12,0,.13-.12.18l0,0v0h0l0,0,0,0v0l0,.08h0l0,0-.11.11,0,0h0l0,0-.07.08a1.45,1.45,0,0,0-.65,1.07l0,.16,0,.07h0c-.08.21-.09.44-.16.65a.91.91,0,0,1-.08.2l0,.07,0,.08,0,0v0l0,0h0v-.18l0-.11V146l0-.12,0-.06h0v0l0,0v0h0l0-.24,0-.07,0,0,0,0v0l0-.06,0-.12,0-.12,0-.09h0v0h0v-.2l0-.06v-.1h0a.36.36,0,0,0,0,.11v0h0l0,0v-.09h0l0-.14v-.08h0v-.13h0v0h0v0l0,.1-.06.17a18,18,0,0,1,7.63-10.41h0v0h.15l0,0h0l.06,0h0l0,0,0,0-.07,0-.06,0,0,0,0,0h0l.13,0,0,0h0v0l0,0-.06,0h0v0h.16v0l0,0h0l0,0h0l0,0h0l0,0v0h0l0,0a.19.19,0,0,0,0,.1h0l0,0-.05,0,0,0-.05,0,0,0h0v0h-.06l0,0V135l0,.05.19,0h0l0,0h-.09v0h-.06v0l0,0,0,0h0v0h0v0l0,0,.06,0,0,0,0,0h.08l0-.05,0,0,.09,0h.05l0,0v0h.07l0,0,0,0h0l0,0h0l0,0h-.1v0h0l0,0,0,.09.07,0h0v0h0l0,0,0,0,0,0h0l0,0h0l0,0h.11l0,0h0v0l0,0h.12l0,0,0,0h.13v0h0l0,0h.1v0l0,0,0,0h-.11l0,0,0,0,0,0h-.11l0,0h0l0,0h0v0h-.06l-.06,0h0l-.06,0h0l0,0h0l0,0,0,0,0,0,0,0h.13l0,0h.09l0,0v0h0l0,0h0v0h.08v0h0v0h0l0,0h0l.06-.07,0,0h.12l0,0h0l.08,0h0l0,0h0v0h0v0l0,0h0l.07,0h0l.15-.06.06,0h0l.06,0,0,0h0l.07,0,0,0H81v0l.06,0,.06,0h0l0,0h0l0,0v0h0l0,0h0v0a0,0,0,0,1,0,0h0l0,0h-.11l-.07,0H81l0,0h0l0,0h0l0,0h0l0,0h0l0,0h-.18l0,0h0l0,0-.11.05h0l0,0,0,0,0,0v0l0,0,0,0h0v0l0,0,0,0H80l0,0h.07v.07l0,0H80l0,0h0l0,0v0h0l-.12.09-.06,0h0l0,0h0l0,0,0,0,0,0,.07,0h0l.11,0h0v0l0,0,0,0h0l-.07.06,0,0h0l0,0h0l0,0h0v0h0l-.06,0,0,0h0v0l0,0,0,0h.14l0,0,.07,0,0,0H80l0,0-.07,0h.06l.1,0,.11-.05h.11l.05-.08.08-.06,0,0h.12l0,0v0h0l0,0h.05v0h-.22l0,0,0,0,0,0h-.07a.17.17,0,0,1,0-.07l0-.06h0l.07,0h0v0h0l0,0h0v0h0v0h-.07v0h0l0,0h0l0,0,.06,0h0l.1,0,.09,0h.08a.62.62,0,0,1,.45,0l0,0v0l0,0h0l0,0h-.14l-.08,0h-.06l0,0,0,0h0l0,0,0,0,0,0v0l0,0v0H81v0h0v0l0,0H81l.06,0h0v0l0,0,0,0h0l0,0h.24a.44.44,0,0,1,.19,0h0v0h0l0,0h0v0l0,0,0,0-.06,0h0l0,0h0l0,0h.05l.08,0h0v0h0v0h0l0,0,.06,0h0v0h0l0-.06h0l0-.05h0l0,0,.06,0h0v0h0l0,0h.1l0,.07v0l-.06.05,0,0h0l0,0v0h0l0,0,0,.05,0,0,0,.06h0l0,0h0l0,0,0,0,0,0,0,0h0l0,0h0v.06l0,0,0,0v0h.05v0l0,0v0l0,0h0l-.05,0-.08,0,0,0h.06v0h0l0,0v0l0,0h-.08l0,0h0v0h0l0,0v0h0l-.06,0h-.09l0,0h0l-.06,0,0,0,0,0v.05h0v.09h0v.1h0l0,0v.09h0s0,0,0,.05v0h0Zm-1.77-1.28h0l0,0h0v0l0,0Zm-.46,0h0v0h0v0h-.05Zm-.1-.33h0l0,0h0Zm-.74,4.49v.05l0,0h.17l0,0v0h0l0,0-.08,0Zm.73-3.62H79v0l0,0h0v0l0,0,0,0,0,.05h0l0,0,0,0v-.1Zm.67,1v0h0l0,0h.06Zm1.1-1Zm.27-.76,0,0h0Zm-5,3.47h0l0,0Z"/></g><path class="cls-5" d="M38.71,68.41A20.74,20.74,0,0,0,7,88.64v16.15a1.47,1.47,0,1,0,2.94,0v-1.47a5.87,5.87,0,1,0,11.74,0V97.45a5.87,5.87,0,0,0-11.74,0V88.64a17.62,17.62,0,0,1,35.24,0v8.81a5.88,5.88,0,0,0-11.75,0v5.87a5.88,5.88,0,1,0,11.75,0v1.47a1.47,1.47,0,1,0,2.93,0V88.64A20.7,20.7,0,0,0,38.71,68.41Z"/><g class="cls-6"><path class="cls-7" d="M47.47,164.74,19.1,168.43l-5.45-41.88L45,122.47l4.84,37.18C50,161.22,49.15,164.52,47.47,164.74Zm-28.25,3.53,28.23-3.67c.94-.12,1.51-1.26,1.77-1.93a6.76,6.76,0,0,0,.47-3l-4.82-37-31.07,4Z"/><path class="cls-7" d="M47.82,165.57,19.21,169.3l-.31-2.37,28.37-3.69c1.28-.17,2.61-2,2.36-4l.14,0,.39,3A3,3,0,0,1,47.82,165.57Zm-28.49,3.57,28.47-3.7A2.81,2.81,0,0,0,50,162.27l-.26-2.05c-.2,1.47-1.17,3-2.47,3.15l-28.23,3.68Z"/><path class="cls-7" d="M21.88,162.62l-6,.78-4.75-36.53,6-.77Zm-5.84.62,5.69-.74L17,126.25l-5.69.74Z"/><path class="cls-7" d="M19.35,169.28l-2.62.34-.83-6.36,2.62-.34Zm-2.5.18,2.34-.3-.79-6.09-2.34.31Z"/><path class="cls-7" d="M47.52,163.34l-28.6,3.73-.54-4.13,28.37-3.69c1.56-.21,2.59-2.23,2.29-4.51l.14,0,.52,4a4.61,4.61,0,0,1-.53,3.64A2.42,2.42,0,0,1,47.52,163.34ZM19,166.91l28.47-3.7a2.3,2.3,0,0,0,1.55-1,4.43,4.43,0,0,0,.5-3.53h0l-.35-2.7c-.15,1.78-1.11,3.19-2.44,3.36l-28.23,3.68Z"/><polygon class="cls-3" points="27.36 173.36 25.1 172.03 23.25 173.9 21.96 164 26.07 163.46 27.36 173.36"/></g><g class="cls-6"><path class="cls-3" d="M170,75.77H132a2.29,2.29,0,0,0-2.28,2.28v26.89a2.29,2.29,0,0,0,2.28,2.28h38a2.28,2.28,0,0,0,2.28-2.28V78.05A2.28,2.28,0,0,0,170,75.77Zm.69,29.17a.69.69,0,0,1-.69.69H132a.68.68,0,0,1-.68-.69V78.05a.68.68,0,0,1,.68-.69h38a.69.69,0,0,1,.69.69Z"/><path class="cls-3" d="M159.49,104.25h-2.85a.69.69,0,0,0,0,1.38H159Z"/><rect class="cls-3" x="134.99" y="104.7" width="10.35" height="0.93"/><polygon class="cls-3" points="145.34 104.7 145.34 110.03 138.53 104.7 145.34 104.7"/></g><g class="cls-6"><path class="cls-3" d="M121.56,11.69c0,.5-1.85,5.9-7.34,10.53L112.75,22l6.63-11.82Z"/><path class="cls-3" d="M73.69,11.69c0,.5,1.85,5.9,7.34,10.53L82.5,22,75.87,10.17Z"/><polygon class="cls-7" points="121.56 15.87 121.56 60.31 111.91 69.96 73.69 69.96 73.69 15.87 121.56 15.87"/><polygon class="cls-3" points="121.56 60.31 111.91 69.96 111.91 60.31 121.56 60.31"/><path class="cls-3" d="M98.23,25.9a5.69,5.69,0,0,0,1.91-.34l.19-.07V22.18H97.81v1.18H99v1.27a3.12,3.12,0,0,1-.73.07,1.87,1.87,0,0,1-2-2.09,1.91,1.91,0,0,1,2.08-2.08,2.83,2.83,0,0,1,1.18.23l.3.14.35-1.17-.22-.11a4,4,0,0,0-1.59-.3,3.24,3.24,0,0,0-3.48,3.33,3,3,0,0,0,3.31,3.25Z"/><path class="cls-3" d="M93.24,35.32a3,3,0,0,0,3-3.38,3,3,0,0,0-2.94-3.27,3.08,3.08,0,0,0-3,3.38A3,3,0,0,0,93.24,35.32Zm.05-5.45c1.09,0,1.59,1.09,1.59,2.1s-.5,2.16-1.6,2.16S91.69,33,91.69,32,92.18,29.87,93.29,29.87Z"/><polygon class="cls-3" points="101.8 35.32 103.15 35.32 103.15 30.09 104.95 30.09 104.95 28.86 100.02 28.86 100.02 30.09 101.8 30.09 101.8 35.32"/><polygon class="cls-3" points="96.48 41.78 98.76 41.78 98.76 44.53 100.1 44.53 100.1 38.08 98.76 38.08 98.76 40.54 96.48 40.54 96.48 38.08 95.15 38.08 95.15 44.53 96.48 44.53 96.48 41.78"/><path class="cls-3" d="M88.2,42h.42c.48,0,.74.16.91.92A7.14,7.14,0,0,0,90,44.39l.08.15h1.44l-.23-.43a9.79,9.79,0,0,1-.43-1.54,2.09,2.09,0,0,0-.57-1.11,1.79,1.79,0,0,0,.82-1.54,1.75,1.75,0,0,0-.55-1.33,2.65,2.65,0,0,0-1.9-.56,8.09,8.09,0,0,0-1.51.13l-.23.05v6.33H88.2Zm0-2.77a2.77,2.77,0,0,1,.46,0c1.07,0,1.07.62,1.07.82,0,.51-.4.83-1,.83H88.2Z"/><path class="cls-3" d="M107.17,44.54h1.21V38.08h-1.29v2.75c0,.4,0,.77,0,1.14-.15-.26-.31-.52-.47-.78l-2-3.11h-1.28v6.46h1.29V41.73c0-.45,0-.85,0-1.22.16.28.34.58.55.91Z"/><path class="cls-3" d="M98.88,47.21,98,49l-.08.17c-.1.18-.18.35-.26.51L97.27,49l-.91-1.78H94.83L96.89,51v2.71h1.34V51l2.19-3.74Z"/><path class="cls-3" d="M90.73,47.21l-1.12,3c-.14.4-.25.74-.35,1.06l-.34-1.06-1.07-3H86.4L86,53.67h1.31l.17-2.79c0-.29,0-.58,0-.87.06.2.13.41.2.63l1,3h1l1.1-3c.09-.24.18-.48.25-.7,0,.32,0,.63,0,.92l.16,2.86h1.32l-.4-6.46Z"/><path class="cls-3" d="M107.45,56.87l-1.12,3c-.14.4-.25.74-.35,1.06l-.34-1.06-1.07-3h-1.44l-.45,6.46H104l.17-2.79c0-.29,0-.58,0-.87.06.2.13.41.2.63l1,3h1l1.1-3c.09-.24.18-.48.25-.7,0,.32,0,.63,0,.93l.17,2.85h1.31l-.4-6.46Z"/><path class="cls-3" d="M105.19,47.12a11.59,11.59,0,0,0-1.66.12l-.25,0v6.29l.26,0a12.08,12.08,0,0,0,1.41.07,3.84,3.84,0,0,0,2.8-.93,3.4,3.4,0,0,0,.94-2.49,3,3,0,0,0-.92-2.32A3.62,3.62,0,0,0,105.19,47.12Zm-.09,5.36h-.48V48.33a4.47,4.47,0,0,1,.6,0,2.15,2.15,0,0,1,1.6.54,2.24,2.24,0,0,1-1.72,3.65Z"/><path class="cls-3" d="M90.38,60.55c0,1.59-.86,1.59-1.15,1.59-.89,0-1.08-.87-1.08-1.59V56.78H86.81v3.75c0,1.78.87,2.8,2.4,2.8s2.51-1,2.51-2.84V56.78H90.38Z"/><path class="cls-3" d="M98.9,59.8a1.6,1.6,0,0,0,.65-1.27,1.48,1.48,0,0,0-.6-1.26,2.69,2.69,0,0,0-1.79-.49,7.71,7.71,0,0,0-1.45.12l-.23.05v6.27l.25,0a10.92,10.92,0,0,0,1.22.07,3.18,3.18,0,0,0,2.23-.63,1.87,1.87,0,0,0,.59-1.39A1.71,1.71,0,0,0,98.9,59.8Zm-1.68-.49h-.4V58h.38c1,0,1,.48,1,.67C98.21,59,97.83,59.31,97.22,59.31Zm0,2.85h-.35V60.46h.34c.46,0,1.23.11,1.23.85S97.72,62.16,97.17,62.16Z"/></g><g class="cls-6"><polygon class="cls-8" points="64.73 117.62 119.6 117.62 119.6 121.46 63.54 121.46 64.73 120.31 63.54 118.9 64.73 117.62"/><polygon class="cls-3" points="58.43 117.62 64.73 117.62 63.54 118.9 64.73 120.31 63.54 121.46 58.43 118.88 58.43 117.62"/><polygon class="cls-9" points="56.14 117.61 58.43 118.71 58.43 116.51 56.14 117.61"/><polygon class="cls-8" points="63.54 113.79 119.6 113.79 119.6 117.62 64.73 117.62 63.54 116.34 64.73 115.06 63.54 113.79"/><polygon class="cls-3" points="63.54 113.79 64.73 115.06 63.54 116.34 64.73 117.62 58.43 117.62 58.43 116.36 63.54 113.79"/></g><g class="cls-6"><path class="cls-8" d="M173.8,133.1l-34.88-8.41a.79.79,0,0,0-1,.58l-10.57,43.81a.79.79,0,0,0,.59,1l35.65,8.6,10.76-44.58A.79.79,0,0,0,173.8,133.1Z"/><path class="cls-7" d="M171.44,130.46l-34.88-8.41a.8.8,0,0,0-1,.59L125,166.44a.79.79,0,0,0,.59,1L161.27,176,172,131.42A.8.8,0,0,0,171.44,130.46Z"/><path class="cls-3" d="M154.12,172.74a6.74,6.74,0,1,1,8.13-5A6.75,6.75,0,0,1,154.12,172.74ZM157,160.83a5.51,5.51,0,1,0,4.07,6.65A5.51,5.51,0,0,0,157,160.83Z"/><path class="cls-3" d="M159.73,165.08l-4.67,3.72-2.36-4.25,1.4-.78,1.44,2.6,3.46-2.76a4.15,4.15,0,0,0-2.31-1.51,4.2,4.2,0,1,0,3.1,5.07A4.1,4.1,0,0,0,159.73,165.08Z"/><rect class="cls-3" x="158.34" y="124.61" width="1.48" height="19.3" transform="translate(-8.75 257.41) rotate(-76.43)"/><rect class="cls-3" x="152.1" y="132.62" width="1.48" height="8.35" transform="translate(-15.99 253.28) rotate(-76.43)"/><rect class="cls-3" x="155.49" y="136.42" width="1.48" height="19.3" transform="translate(-22.41 263.68) rotate(-76.43)"/><rect class="cls-3" x="149.25" y="144.43" width="1.48" height="8.35" transform="translate(-29.65 259.54) rotate(-76.43)"/><polygon class="cls-3" points="142.69 132.74 142.26 134.54 140.96 131 141.92 130.64 142.69 132.74"/><path class="cls-3" d="M146.9,128.85l-5.65-1.37a1.47,1.47,0,0,0-1.77,1.08l-1.36,5.65A1.47,1.47,0,0,0,139.2,136l5.65,1.36a1.45,1.45,0,0,0,1.76-1.08l1.37-5.65a1.46,1.46,0,0,0-1.08-1.76Zm-2,7.64-5.41-1.31a.74.74,0,0,1-.55-.89l1.31-5.41a.74.74,0,0,1,.89-.54l5.41,1.3a.75.75,0,0,1,.55.9l-1.31,5.4a.75.75,0,0,1-.89.55Z"/><polygon class="cls-3" points="145.75 131.33 142.26 134.54 142.69 132.74 142.69 132.75 145.05 130.58 145.75 131.33"/><polygon class="cls-3" points="139.84 144.55 139.41 146.34 138.11 142.8 139.07 142.44 139.84 144.55"/><path class="cls-3" d="M144.05,140.65l-5.65-1.36a1.45,1.45,0,0,0-1.76,1.08L135.27,146a1.46,1.46,0,0,0,1.08,1.76l5.65,1.37a1.47,1.47,0,0,0,1.77-1.08l1.36-5.65a1.46,1.46,0,0,0-1.08-1.77Zm-2,7.64-5.41-1.3a.74.74,0,0,1-.54-.9l1.3-5.4a.75.75,0,0,1,.9-.55l5.4,1.31a.74.74,0,0,1,.55.89L143,147.75a.73.73,0,0,1-.89.54Z"/><polygon class="cls-3" points="142.9 143.14 139.41 146.34 139.84 144.55 139.84 144.55 142.2 142.38 142.9 143.14"/><path class="cls-3" d="M141.2,152.46l-5.65-1.37a1.46,1.46,0,0,0-1.76,1.08l-1.37,5.65a1.47,1.47,0,0,0,1.08,1.77l5.65,1.36a1.46,1.46,0,0,0,1.77-1.08l1.36-5.65a1.46,1.46,0,0,0-1.08-1.76Zm-2,7.64-5.41-1.31a.73.73,0,0,1-.54-.89l1.3-5.41a.75.75,0,0,1,.9-.54l5.4,1.3a.75.75,0,0,1,.55.9l-1.31,5.4a.74.74,0,0,1-.89.55Z"/></g><text class="cls-10" transform="translate(145.68 92.9) rotate(27.11)">B</text><g class="cls-6"><path class="cls-3" d="M143.92,54.68a2,2,0,0,1-3-2.55l3.67-4.27a2,2,0,0,1,3,2.54Z"/><path class="cls-3" d="M165.69,54.68a2,2,0,0,0,3-2.54L165,47.86a2,2,0,0,0-3,2.55Z"/><rect class="cls-3" x="163.61" y="24.44" width="7.1" height="2.92" transform="translate(30.65 125.79) rotate(-45)"/><rect class="cls-8" x="167.98" y="20.67" width="2.92" height="5.91" transform="translate(32.9 126.7) rotate(-44.99)"/><rect class="cls-3" x="141.08" y="22.35" width="2.92" height="7.1" transform="translate(23.43 108.37) rotate(-45)"/><rect class="cls-8" x="137.31" y="22.17" width="5.91" height="2.92" transform="translate(24.4 106.13) rotate(-45.01)"/><path class="cls-7" d="M154.85,26.9v-5a16.32,16.32,0,0,0,0,32.63v-5a11.32,11.32,0,1,1,0-22.63Z"/><path class="cls-7" d="M171.17,38.21a16.32,16.32,0,0,1-16.32,16.32v-5a11.32,11.32,0,1,0,0-22.63v-5A16.32,16.32,0,0,1,171.17,38.21Z"/><rect class="cls-7" x="148.15" y="15.15" width="13.41" height="5.12" rx="1.67" ry="1.67"/><polygon class="cls-3" points="155.4 37.8 154.25 38.59 150.08 32.51 149.98 31.12 151.24 31.72 155.4 37.8"/><polygon class="cls-3" points="154.81 39.12 154.81 37.45 159.89 37.45 161.31 38.29 159.89 39.12 154.81 39.12"/><path class="cls-3" d="M156.21,38.15a1.41,1.41,0,0,1-2.81.13,1.41,1.41,0,1,1,2.81-.13Z"/></g><g class="cls-6"><path class="cls-3" d="M94.82,89.35l.18-.17c3.4,0,9.47.11,12.2-.05,2.49-.15,6.25-.59,6.28-1.12s-6.19-.84-15.87-1.23c7.13-6.56,11.61-10.86,11.3-11.2s-3.52,1.71-5.51,3.2c-2.19,1.65-6.77,5.62-9.33,7.86h-.25a22.56,22.56,0,0,1-2.24-.55l-1,2.06a3.67,3.67,0,0,1,.71.11l.77.55-.23.93a3.87,3.87,0,0,1-.47.54l2.06,1C93.94,90.5,94.4,89.87,94.82,89.35Z"/><path class="cls-3" d="M87.24,84.08a13.55,13.55,0,0,1-1.5-1.2A7.65,7.65,0,0,0,82,81c-3.17-.63-6,.59-6.44,2.78a3.05,3.05,0,0,0,.14,1.64,6.18,6.18,0,0,0,4.75,3.4,7.41,7.41,0,0,0,3.39,0,26,26,0,0,1,5.83-.69l1.06-2.3A15.66,15.66,0,0,1,87.24,84.08ZM80.73,87.4a4.88,4.88,0,0,1-3.66-2.47,1.55,1.55,0,0,1-.08-.85c.27-1.35,2.43-2.1,4.73-1.64,1.82.36,3.27,1.38,3.67,2.46a1.7,1.7,0,0,1,.08.86C85.2,87.1,83,87.86,80.73,87.4Z"/><path class="cls-3" d="M89.46,101.29a7.8,7.8,0,0,0,1.64-3.85,11.91,11.91,0,0,1,.36-1.89A15.94,15.94,0,0,1,93,92l-2.3-1.06a25.82,25.82,0,0,1-4.88,3.25,7.27,7.27,0,0,0-2.61,2.16c-1.5,1.9-2,4.1-1.42,5.67a3,3,0,0,0,.95,1.34C84.49,104.72,87.44,103.82,89.46,101.29Zm-5.81.91a1.59,1.59,0,0,1-.5-.71,4.89,4.89,0,0,1,1.2-4.25c1.46-1.84,3.59-2.67,4.67-1.82a1.57,1.57,0,0,1,.49.71c.4,1.08,0,2.8-1.19,4.25C86.86,102.22,84.72,103.05,83.65,102.2Z"/></g><path class="cls-5" d="M51.79,45.77A1.24,1.24,0,0,0,49.64,47L62.13,68.92c-2.73-.35-6.18,1.61-7.86,4.7-2,3.7-1,7.78,2.21,9.11S64,82.15,66,78.45a7.18,7.18,0,0,0,.26-7,1.27,1.27,0,0,0-.09-.43Z"/><path class="cls-5" d="M27.58,16.07l-11.26,13L33.09,43.59,46.73,27.83a1.26,1.26,0,0,1,.31-.26,7,7,0,0,1,6.15-2.32c3.71.4,6.44,3.32,6.1,6.54s-3.65,5.5-7.37,5.1c-3.1-.32-5.61-2.5-6.07-5L34.51,45,30,50.26,29,51.4,9.18,34.29l1-1.15,4.56-5.26L28.45,12a1.31,1.31,0,0,1,.32-.26,7,7,0,0,1,6.15-2.31c3.72.39,6.44,3.31,6.1,6.53s-3.65,5.5-7.37,5.11C30.55,20.76,28,18.58,27.58,16.07Z"/></svg>