<?xml version="1.0" encoding="utf-8"?>
<!-- Generator: Adobe Illustrator 19.0.0, SVG Export Plug-In . SVG Version: 6.00 Build 0)  -->
<svg version="1.1" id="Layer_1" xmlns="http://www.w3.org/2000/svg" xmlns:xlink="http://www.w3.org/1999/xlink" x="0px" y="0px"
	 viewBox="0 0 960 560" style="enable-background:new 0 0 960 560;" xml:space="preserve">
<style type="text/css">
	.st0{fill:#0070B9;}
</style>
<path id="XMLID_1803_" class="st0" d="M502.2,301.8h-43.5c0,0-2.5-5.3,1.4-9.8c0,0,4.8-2.5,10.9-4.1c6.1-1.6,4.2-4.4,2.6-6.4
	c-1.5-1.9-2-4.5-2-4.5s-2.3-1.4-2.6-4.9c0,0,0.2-0.8,1.1-0.5c0,0-1.2-6.5,2.5-9.7s11.4-1.6,12.9-0.7c1.5,0.9,3.3,3.4,3.4,7.2
	l0.1,3.3c0,0,0.9-0.3,0.9,0.4c0,0,0,3-0.5,3.7s-1.7,0.8-1.7,0.8s-0.1,3.7-2.1,5.9s0.7,4.2,2.1,4.7c1.4,0.5,10.3,1.9,13.5,5.8
	S502.2,301.8,502.2,301.8z"/>
</svg>
