<?xml version="1.0" encoding="utf-8"?>
<!-- Generator: Adobe Illustrator 19.0.0, SVG Export Plug-In . SVG Version: 6.00 Build 0)  -->
<svg version="1.1" id="Layer_1" xmlns="http://www.w3.org/2000/svg" xmlns:xlink="http://www.w3.org/1999/xlink" x="0px" y="0px"
	 viewBox="0 0 960 560" style="enable-background:new 0 0 960 560;" xml:space="preserve">
<style type="text/css">
	.st0{fill-rule:evenodd;clip-rule:evenodd;fill:#0070B9;}
	.st1{fill-rule:evenodd;clip-rule:evenodd;fill:#3F7296;}
	.st2{fill-rule:evenodd;clip-rule:evenodd;fill:#FFFFFF;}
	.st3{fill:#0070B9;}
</style>
<g id="XMLID_1390_">
	<path id="XMLID_2281_" class="st0" d="M471.8,287c6.1-2.4,15.9-2.4,21.8,0.2c5.9,2.5,5.7,6.6-0.4,9c-6.1,2.4-15.9,2.4-21.8-0.2
		C465.5,293.4,465.7,289.4,471.8,287z"/>
	<rect id="XMLID_2280_" x="467.1" y="287.6" class="st1" width="30.8" height="3.9"/>
	<path id="XMLID_2277_" class="st0" d="M471.8,283.1c6.1-2.4,15.9-2.4,21.8,0.2c5.9,2.5,5.7,6.6-0.4,9c-6.1,2.4-15.9,2.4-21.8-0.2
		C465.5,289.5,465.7,285.5,471.8,283.1z"/>
	<path id="XMLID_2276_" class="st2" d="M473.5,283.8c5.1-1.9,13.3-1.8,18.3,0.1c4.9,2,4.8,5.1-0.4,6.9c-5.1,1.9-13.3,1.8-18.3-0.1
		C468.2,288.7,468.4,285.6,473.5,283.8z"/>
	<path id="XMLID_2266_" class="st2" d="M496,293.6v-2.7c0.4-0.3,0.8-0.7,1.1-1v1.8C497.1,292.1,497,292.8,496,293.6L496,293.6z
		 M472.8,295.5c-0.5-0.2-0.9-0.3-1.3-0.5v-2.7c0.4,0.2,0.9,0.3,1.3,0.5V295.5L472.8,295.5z M470.9,294.7c-0.5-0.2-0.9-0.5-1.3-0.7
		v-2.7c0.4,0.3,0.8,0.5,1.3,0.7V294.7L470.9,294.7z M469,293.6c-0.9-0.7-1.1-1.2-1.1-1.8v-1.9c0.3,0.3,0.6,0.7,1.1,1V293.6z"/>
	<path id="XMLID_2265_" class="st0" d="M465.4,280.1c6.1-2.4,15.9-2.4,21.8,0.2c5.9,2.5,5.7,6.6-0.4,9c-6.1,2.4-15.9,2.4-21.8-0.2
		C459.1,286.6,459.3,282.5,465.4,280.1z"/>
	<rect id="XMLID_2264_" x="460.7" y="280.8" class="st1" width="30.8" height="3.9"/>
	<path id="XMLID_2263_" class="st0" d="M465.4,276.2c6.1-2.4,15.9-2.4,21.8,0.2c5.9,2.5,5.7,6.6-0.4,9c-6.1,2.4-15.9,2.4-21.8-0.2
		C459.1,282.7,459.3,278.7,465.4,276.2z"/>
	<path id="XMLID_2262_" class="st2" d="M467.1,276.9c5.1-1.9,13.3-1.8,18.3,0.1c4.9,2,4.8,5.1-0.4,6.9c-5.1,1.9-13.3,1.8-18.3-0.1
		C461.8,281.9,461.9,278.8,467.1,276.9z"/>
	<path id="XMLID_2257_" class="st2" d="M489.5,286.7V284c0.4-0.3,0.8-0.7,1.1-1v1.8C490.6,285.3,490.5,286,489.5,286.7L489.5,286.7z
		 M466.3,288.6c-0.5-0.2-0.9-0.3-1.3-0.5v-2.7c0.4,0.2,0.9,0.3,1.3,0.5V288.6L466.3,288.6z M464.4,287.8c-0.5-0.2-0.9-0.5-1.3-0.7
		v-2.7c0.4,0.3,0.8,0.5,1.3,0.7V287.8L464.4,287.8z M462.5,286.7c-0.9-0.7-1.1-1.2-1.1-1.8V283c0.3,0.3,0.6,0.7,1.1,1V286.7z"/>
	<path id="XMLID_2256_" class="st0" d="M472.7,273.6c6.1-2.4,15.9-2.4,21.8,0.2c5.9,2.5,5.7,6.6-0.4,9c-6.1,2.4-15.9,2.4-21.8-0.2
		C466.3,280,466.5,276,472.7,273.6z"/>
	<rect id="XMLID_2255_" x="467.9" y="274.2" class="st1" width="30.8" height="3.9"/>
	<path id="XMLID_2254_" class="st0" d="M472.7,269.7c6.1-2.4,15.9-2.4,21.8,0.2c5.9,2.5,5.7,6.6-0.4,9c-6.1,2.4-15.9,2.4-21.8-0.2
		C466.3,276.1,466.5,272.1,472.7,269.7z"/>
	<path id="XMLID_2253_" class="st2" d="M474.4,270.3c5.1-1.9,13.3-1.8,18.3,0.1c4.9,2,4.8,5.1-0.4,6.9c-5.1,1.9-13.3,1.8-18.3-0.1
		C469,275.3,469.2,272.2,474.4,270.3z"/>
	<path id="XMLID_2248_" class="st2" d="M496.8,280.2v-2.7c0.4-0.3,0.8-0.7,1.1-1v1.8C497.9,278.7,497.8,279.4,496.8,280.2
		L496.8,280.2z M473.6,282c-0.5-0.2-0.9-0.3-1.3-0.5v-2.7c0.4,0.2,0.9,0.3,1.3,0.5V282L473.6,282z M471.7,281.3
		c-0.5-0.2-0.9-0.5-1.3-0.7v-2.7c0.4,0.3,0.8,0.5,1.3,0.7V281.3L471.7,281.3z M469.8,280.1c-0.9-0.7-1.1-1.2-1.1-1.8v-1.9
		c0.3,0.3,0.6,0.7,1.1,1V280.1z"/>
	<path id="XMLID_2247_" class="st0" d="M466.6,267.3c6.1-2.4,15.9-2.4,21.8,0.2c5.9,2.5,5.7,6.6-0.4,9c-6.1,2.4-15.9,2.4-21.8-0.2
		C460.3,273.8,460.5,269.7,466.6,267.3z"/>
	<rect id="XMLID_2246_" x="461.9" y="268" class="st1" width="30.8" height="3.9"/>
	<path id="XMLID_2245_" class="st0" d="M466.6,263.4c6.1-2.4,15.9-2.4,21.8,0.2c5.9,2.5,5.7,6.6-0.4,9c-6.1,2.4-15.9,2.4-21.8-0.2
		C460.3,269.9,460.5,265.8,466.6,263.4z"/>
	<path id="XMLID_2244_" class="st2" d="M468.3,264.1c5.1-1.9,13.3-1.8,18.3,0.1c4.9,2,4.8,5.1-0.4,6.9c-5.1,1.9-13.3,1.8-18.3-0.1
		C463,269.1,463.2,266,468.3,264.1z"/>
	<path id="XMLID_2239_" class="st3" d="M483.5,270.6c0.1,0.1,0.3,0.1,0.5,0.1c0.2,0,0.3,0,0.5-0.1c0.1-0.1,0.2-0.1,0.2-0.2
		c0-0.1-0.1-0.1-0.2-0.2l-0.9-0.4c0.5-0.2,0.9-0.5,1.2-0.8c0.3-0.3,0.4-0.5,0.5-0.8c0-0.3-0.1-0.5-0.3-0.8c-0.2-0.3-0.6-0.5-1.2-0.7
		c-0.5-0.2-0.9-0.3-1.4-0.4c-0.5-0.1-1-0.1-1.4-0.1c-0.2,0-0.4,0-0.6,0v1.5c0.1,0,0.2,0,0.3,0c0.2,0,0.4,0.1,0.6,0.2
		c0.3,0.1,0.5,0.3,0.5,0.5c0,0.2-0.2,0.3-0.4,0.5l-0.9-0.4v0.8l0,0l0,0v1.7c0.4-0.1,0.8-0.2,1.2-0.3c0.4-0.1,0.8-0.2,1.1-0.4
		L483.5,270.6z M480.3,266.2c-0.3,0-0.5,0-0.8,0.1c-0.5,0.1-1,0.1-1.5,0.2c-0.5,0.1-1,0.2-1.5,0.3l-2.5-1.1c0.3-0.1,0.5-0.2,0.8-0.2
		c0.2-0.1,0.4-0.1,0.6-0.1c0.2,0,0.4-0.1,0.6-0.1c0.2,0,0.3-0.1,0.5-0.2c0.3-0.1,0.4-0.2,0.5-0.3c0.1-0.1,0.1-0.2,0.1-0.4
		c-0.1-0.1-0.2-0.2-0.4-0.3c-0.2-0.1-0.5-0.2-0.8-0.2c-0.3,0-0.7,0-1,0c-0.3,0-0.6,0.1-0.9,0.2v2.4l1.4,0.6l-0.5,0.1
		c-0.2,0-0.3,0-0.5,0.1c-0.1,0-0.2,0-0.3,0v1.5c0.3,0,0.6,0,0.9-0.1c0.5-0.1,1-0.1,1.5-0.2c0.5-0.1,1-0.2,1.5-0.3l2.7,1.2v-0.8
		l-1.4-0.6l0.5-0.1c0.2,0,0.3,0,0.5-0.1c0.1,0,0.2,0,0.3,0V266.2L480.3,266.2z M480.3,269.3c-0.3,0.1-0.6,0.2-0.9,0.2
		c-0.3,0.1-0.6,0.1-0.8,0.2c-0.3,0-0.5,0.1-0.8,0.2c-0.2,0.1-0.5,0.1-0.7,0.2c-0.3,0.1-0.5,0.3-0.6,0.4c-0.1,0.1-0.1,0.2,0,0.4
		c0.1,0.1,0.2,0.2,0.4,0.3c0.2,0.1,0.5,0.2,0.9,0.2c0.3,0,0.7,0,1.1-0.1c0.4-0.1,0.8-0.1,1.3-0.2l0,0V269.3z M473.8,264.1
		c-0.1,0-0.1,0-0.2,0c-0.4,0.1-0.7,0.2-1.1,0.3c-0.3,0.1-0.7,0.2-0.9,0.3l-0.9-0.4c-0.1-0.1-0.3-0.1-0.5-0.1c-0.2,0-0.3,0-0.5,0.1
		c-0.1,0.1-0.2,0.1-0.2,0.2c0,0.1,0.1,0.1,0.2,0.2l0.9,0.4c-0.8,0.3-1.3,0.7-1.6,1c-0.3,0.3-0.4,0.7-0.2,1c0.2,0.3,0.6,0.7,1.3,1
		c0.5,0.2,1,0.4,1.5,0.4c0.5,0.1,1,0.1,1.5,0.1c0.2,0,0.4,0,0.6,0v-1.5c-0.1,0-0.2,0-0.3,0c-0.2,0-0.4-0.1-0.6-0.2
		c-0.2-0.1-0.3-0.2-0.4-0.3c0-0.1,0-0.2,0.1-0.3c0.1-0.1,0.2-0.2,0.4-0.3l0.8,0.4V264.1z"/>
	<path id="XMLID_2234_" class="st2" d="M490.8,273.9v-2.7c0.4-0.3,0.8-0.7,1.1-1v1.8C491.9,272.5,491.8,273.1,490.8,273.9
		L490.8,273.9z M467.5,275.8c-0.5-0.2-0.9-0.3-1.3-0.5v-2.7c0.4,0.2,0.9,0.3,1.3,0.5V275.8L467.5,275.8z M465.6,275
		c-0.5-0.2-0.9-0.5-1.3-0.7v-2.7c0.4,0.3,0.8,0.5,1.3,0.7V275L465.6,275z M463.8,273.9c-0.9-0.7-1.1-1.2-1.1-1.8v-1.9
		c0.3,0.3,0.6,0.7,1.1,1V273.9z"/>
</g>
</svg>
