<?xml version="1.0" encoding="utf-8"?>
<!-- Generator: Adobe Illustrator 19.0.0, SVG Export Plug-In . SVG Version: 6.00 Build 0)  -->
<svg version="1.1" id="Layer_1" xmlns="http://www.w3.org/2000/svg" xmlns:xlink="http://www.w3.org/1999/xlink" x="0px" y="0px"
	 viewBox="0 0 960 560" style="enable-background:new 0 0 960 560;" xml:space="preserve">
<style type="text/css">
	.st0{fill:#0070B9;}
</style>
<g id="XMLID_1991_">
	<path id="XMLID_2002_" class="st0" d="M491.1,265.8h-0.6v-0.4c0-0.5-0.4-1-1-1c-0.5,0-1,0.4-1,1v0.4h-1.7v-0.4c0-0.5-0.4-1-1-1
		c-0.5,0-0.9,0.4-0.9,1v0.4h-1.7v-0.4c0-0.5-0.4-1-0.9-1s-1,0.4-1,1v0.4h-1.7v-0.4c0-0.5-0.4-1-1-1c-0.5,0-1,0.4-1,1v0.4h-1.7v-0.4
		c0-0.5-0.4-1-1-1c-0.5,0-1,0.4-1,1v0.4h-1.7v-0.4c0-0.5-0.4-1-1-1c-0.5,0-1,0.4-1,1v0.4h-0.6c-2.5,0-4.5,2-4.5,4.5v21.4
		c0,2.5,2,4.5,4.5,4.5h21.4c2.5,0,4.5-2,4.5-4.5v-21.4C495.6,267.8,493.6,265.8,491.1,265.8L491.1,265.8z M489,265.4
		c0-0.3,0.2-0.5,0.5-0.5c0.3,0,0.5,0.2,0.5,0.5v6.2c0,0.3-0.2,0.5-0.5,0.5c-0.3,0-0.5-0.2-0.5-0.5V265.4z M485.4,265.4
		c0-0.3,0.2-0.5,0.5-0.5c0.3,0,0.5,0.2,0.5,0.5v6.2c0,0.3-0.2,0.5-0.5,0.5c-0.3,0-0.5-0.2-0.5-0.5V265.4z M481.7,265.4
		c0-0.3,0.2-0.5,0.5-0.5c0.3,0,0.5,0.2,0.5,0.5v6.2c0,0.3-0.2,0.5-0.5,0.5c-0.3,0-0.5-0.2-0.5-0.5V265.4z M478.1,265.4
		c0-0.3,0.2-0.5,0.5-0.5c0.3,0,0.5,0.2,0.5,0.5v6.2c0,0.3-0.2,0.5-0.5,0.5c-0.3,0-0.5-0.2-0.5-0.5V265.4z M474.4,265.4
		c0-0.3,0.2-0.5,0.5-0.5c0.3,0,0.5,0.2,0.5,0.5v6.2c0,0.3-0.2,0.5-0.5,0.5c-0.3,0-0.5-0.2-0.5-0.5V265.4z M470.8,265.4
		c0-0.3,0.2-0.5,0.5-0.5c0.3,0,0.5,0.2,0.5,0.5v6.2c0,0.3-0.2,0.5-0.5,0.5c-0.3,0-0.5-0.2-0.5-0.5V265.4z M493.3,291.7
		c0,1.2-1,2.2-2.2,2.2h-21.4c-1.2,0-2.2-1-2.2-2.2v-21.4c0-1.2,1-2.2,2.2-2.2h0.6v2.4c-0.3,0.3-0.5,0.7-0.5,1.1
		c0,0.8,0.7,1.5,1.5,1.5c0.8,0,1.5-0.7,1.5-1.5c0-0.5-0.2-0.9-0.5-1.1v-2.4h1.7v2.4c-0.3,0.3-0.5,0.7-0.5,1.1c0,0.8,0.7,1.5,1.5,1.5
		c0.8,0,1.5-0.7,1.5-1.5c0-0.5-0.2-0.9-0.5-1.1v-2.4h1.7v2.4c-0.3,0.3-0.5,0.7-0.5,1.1c0,0.8,0.7,1.5,1.5,1.5c0.8,0,1.5-0.7,1.5-1.5
		c0-0.5-0.2-0.9-0.5-1.1v-2.4h1.7v2.4c-0.3,0.3-0.5,0.7-0.5,1.1c0,0.8,0.7,1.5,1.5,1.5c0.8,0,1.5-0.7,1.5-1.5c0-0.5-0.2-0.9-0.5-1.1
		v-2.4h1.7v2.4c-0.3,0.3-0.5,0.7-0.5,1.1c0,0.8,0.7,1.5,1.5,1.5c0.8,0,1.5-0.7,1.5-1.5c0-0.5-0.2-0.9-0.5-1.1v-2.4h1.7v2.4
		c-0.3,0.3-0.5,0.7-0.5,1.1c0,0.8,0.7,1.5,1.5,1.5c0.8,0,1.5-0.7,1.5-1.5c0-0.5-0.2-0.9-0.5-1.1v-2.4h0.6c1.2,0,2.2,1,2.2,2.2
		L493.3,291.7L493.3,291.7z M493.3,291.7"/>
	<rect id="XMLID_2001_" x="475.3" y="276.9" class="st0" width="4.4" height="3.9"/>
	<rect id="XMLID_2000_" x="481.1" y="276.9" class="st0" width="4.4" height="3.9"/>
	<rect id="XMLID_1999_" x="486.9" y="276.9" class="st0" width="4.4" height="3.9"/>
	<rect id="XMLID_1998_" x="469.4" y="282.1" class="st0" width="4.4" height="3.9"/>
	<rect id="XMLID_1997_" x="475.3" y="282.1" class="st0" width="4.4" height="3.9"/>
	<rect id="XMLID_1996_" x="481.1" y="282.1" class="st0" width="4.4" height="3.9"/>
	<rect id="XMLID_1995_" x="486.9" y="282.1" class="st0" width="4.4" height="3.9"/>
	<rect id="XMLID_1994_" x="469.4" y="287.3" class="st0" width="4.4" height="3.9"/>
	<rect id="XMLID_1993_" x="475.3" y="287.3" class="st0" width="4.4" height="3.9"/>
	<rect id="XMLID_1992_" x="481.1" y="287.3" class="st0" width="4.4" height="3.9"/>
</g>
</svg>
