<?xml version="1.0" encoding="utf-8"?>
<!-- Generator: Adobe Illustrator 19.0.0, SVG Export Plug-In . SVG Version: 6.00 Build 0)  -->
<svg version="1.1" id="Layer_1" xmlns="http://www.w3.org/2000/svg" xmlns:xlink="http://www.w3.org/1999/xlink" x="0px" y="0px"
	 viewBox="0 0 960 560" style="enable-background:new 0 0 960 560;" xml:space="preserve">
<style type="text/css">
	.st0{clip-path:url(#XMLID_2_);fill:#0070B9;}
</style>
<g id="XMLID_2915_">
	<g id="XMLID_2491_">
		<defs>
			<rect id="XMLID_2481_" x="461.9" y="265.7" width="37.2" height="30.9"/>
		</defs>
		<clipPath id="XMLID_2_">
			<use xlink:href="#XMLID_2481_"  style="overflow:visible;"/>
		</clipPath>
		<path id="XMLID_2493_" class="st0" d="M484,270.9c1.7,1.1,2.9,2.9,3.1,5c0.7,0.3,1.5,0.5,2.3,0.5c3,0,5.4-2.4,5.4-5.4
			c0-3-2.4-5.4-5.4-5.4C486.5,265.5,484.1,267.9,484,270.9L484,270.9z M480.5,281.9c3,0,5.4-2.4,5.4-5.4c0-3-2.4-5.4-5.4-5.4
			c-3,0-5.4,2.4-5.4,5.4C475.1,279.5,477.5,281.9,480.5,281.9L480.5,281.9z M482.8,282.3h-4.6c-3.8,0-6.9,3.1-6.9,6.9v5.6l0,0.1
			l0.4,0.1c3.6,1.1,6.8,1.5,9.4,1.5c5.1,0,8-1.4,8.2-1.5l0.4-0.2h0v-5.6C489.7,285.4,486.6,282.3,482.8,282.3L482.8,282.3z
			 M491.7,276.7h-4.5c0,1.8-0.8,3.5-2.1,4.6c3.4,1,5.9,4.1,5.9,7.8v1.7c4.5-0.2,7.1-1.4,7.2-1.5l0.4-0.2h0v-5.6
			C498.6,279.8,495.5,276.7,491.7,276.7L491.7,276.7z M471.1,276.3c1.1,0,2-0.3,2.9-0.8c0.3-1.7,1.2-3.2,2.5-4.3c0-0.1,0-0.2,0-0.3
			c0-3-2.4-5.4-5.4-5.4c-3,0-5.4,2.4-5.4,5.4S468.1,276.3,471.1,276.3L471.1,276.3z M475.9,281.3c-1.2-1.2-2-2.8-2-4.6
			c-0.2,0-0.3,0-0.5,0h-4.6c-3.8,0-6.9,3.1-6.9,6.9v5.6l0,0.1l0.4,0.1c2.9,0.9,5.5,1.3,7.8,1.5v-1.7
			C470,285.5,472.5,282.3,475.9,281.3L475.9,281.3z M475.9,281.3"/>
	</g>
</g>
</svg>
