<?xml version="1.0" encoding="utf-8"?>
<!-- Generator: Adobe Illustrator 19.0.0, SVG Export Plug-In . SVG Version: 6.00 Build 0)  -->
<svg version="1.1" id="Layer_1" xmlns="http://www.w3.org/2000/svg" xmlns:xlink="http://www.w3.org/1999/xlink" x="0px" y="0px"
	 viewBox="0 0 960 560" style="enable-background:new 0 0 960 560;" xml:space="preserve">
<style type="text/css">
	.st0{fill:none;stroke:#0070B9;stroke-width:4;stroke-miterlimit:10;}
	.st1{fill:none;stroke:#29A8E0;stroke-width:3;stroke-miterlimit:10;}
	.st2{fill:#3F7296;}
</style>
<g id="XMLID_1391_">
	<path id="XMLID_1441_" class="st0" d="M493.1,280.1c0-0.2,0-0.4,0-0.5c0-4.7-2.2-8.9-5.7-11.6"/>
	<path id="XMLID_1440_" class="st1" d="M493.1,280.1"/>
	<path id="XMLID_1439_" class="st0" d="M487.4,267.9c-2.5-1.9-5.6-3.1-9-3.1c-8.1,0-14.7,6.6-14.7,14.7s6.6,14.7,14.7,14.7
		c3.4,0,6.6-1.2,9.1-3.1"/>
	<path id="XMLID_1438_" class="st2" d="M494,285.6L494,285.6c0.4-0.4,0.4-1,0-1.4l-4.3-4.3c-0.4-0.4-1-0.4-1.4,0l0,0
		c-0.4,0.4-0.4,1,0,1.4l4.3,4.3C493,286,493.6,286,494,285.6z"/>
	<path id="XMLID_1437_" class="st2" d="M492.8,285.6L492.8,285.6c-0.4-0.4-0.4-1,0-1.4l4.3-4.3c0.4-0.4,1-0.4,1.4,0l0,0
		c0.4,0.4,0.4,1,0,1.4l-4.3,4.3C493.8,286,493.2,286,492.8,285.6z"/>
	<path id="XMLID_1436_" class="st2" d="M487.8,280.1L487.8,280.1c0-0.6,0.5-1,1-1h8.6c0.6,0,1,0.5,1,1l0,0c0,0.6-0.5,1-1,1h-8.6
		C488.3,281.1,487.8,280.6,487.8,280.1z"/>
	<g id="XMLID_1435_">
		<path id="XMLID_9_" class="st2" d="M492.8,282.7c0,0.2,0,0.4,0.1,0.6c0.2,0.1,0.5-0.1,0.7-0.3c0.3-0.3,0.6-0.6,0.9-1
			c-0.2,0.2-0.3,0.4-0.5,0.7c0.1-0.3,0.1-0.6,0.3-0.8s0.5-0.3,0.8-0.2c-1.2,0-2.3,0-3.5,0c0.4,0.6,1.2,0.9,1.9,0.6
			c0.1,0,0.1-0.1,0.1-0.1c0-0.1-0.1-0.1-0.1,0"/>
	</g>
	
		<rect id="XMLID_1434_" x="491.5" y="278.5" transform="matrix(8.220323e-002 0.9966 -0.9966 8.220323e-002 733.4688 -233.3949)" class="st2" width="3.9" height="6.1"/>
</g>
</svg>
